<?xml version="1.0" encoding="UTF-8"?>
<svg version="1.1" xmlns="http://www.w3.org/2000/svg" width="424" height="588">
<path d="M0 0 C1.45806798 0.91708869 2.91639559 1.83376474 4.375 2.75 C8.47983231 5.50150873 12.27344418 8.58544621 16.0625 11.75 C16.64757324 12.23436523 17.23264648 12.71873047 17.83544922 13.21777344 C19.26427872 14.4322572 20.63766905 15.71136547 22 17 C22 17.66 22 18.32 22 19 C22.66 19 23.32 19 24 19 C45.7600741 39.52504286 56.35269503 69.45508304 57.3125 98.75 C56.79892113 119.72113711 51.59944983 141.33130252 42 160 C41.4740625 161.12019531 40.948125 162.24039063 40.40625 163.39453125 C35.87010531 172.96119968 30.52078269 181.94779043 24.92407227 190.93066406 C14.9628138 206.95861623 9.06290736 222.98502285 7.62109375 241.8984375 C6.21894905 259.52188945 6.21894905 259.52188945 1 267 C0.49855469 267.74636719 -0.00289062 268.49273437 -0.51953125 269.26171875 C-2.54321124 272.1153637 -4.25147897 274.48835271 -7.16015625 276.4765625 C-9.47000429 278.0241061 -9.47000429 278.0241061 -9.375 281.9375 C-9.22822896 285.15472111 -8.47628784 287.1458435 -7 290 C-7.31902577 293.34977063 -7.59179639 294.59179639 -10 297 C-9.56237193 300.17280351 -8.22638495 303.05667611 -7 306 C-8.32 307.65 -9.64 309.3 -11 311 C-9.77992056 313.6905528 -9.77992056 313.6905528 -8 316 C-7.95919217 317.99958364 -7.95745644 320.00045254 -8 322 C-8.99 322.33 -9.98 322.66 -11 323 C-11.25030977 325.41619823 -11.25030977 325.41619823 -11 328 C-10.01 328.66 -9.02 329.32 -8 330 C-7.625 333 -7.625 333 -8 336 C-8.99 336.66 -9.98 337.32 -11 338 C-11.72382467 340.05925139 -11.72382467 340.05925139 -12 342 C-11.34 342 -10.68 342 -10 342 C-9.1875 344.625 -9.1875 344.625 -9 348 C-12.68614072 353.58866496 -18.57835995 359.85945332 -25 362 C-25 362.66 -25 363.32 -25 364 C-25.78375 364.2475 -26.5675 364.495 -27.375 364.75 C-30.50418799 366.24008952 -30.53700617 366.99871119 -32 370 C-35.67406336 374.5710178 -39.45422461 378.77777631 -45.48828125 379.76171875 C-46.31714844 379.84035156 -47.14601562 379.91898437 -48 380 C-49.18980469 380.13019531 -50.37960938 380.26039063 -51.60546875 380.39453125 C-61.79602757 381.35389089 -73.27878261 382.15443769 -82 376 C-83.73046875 374.2109375 -83.73046875 374.2109375 -85.1875 372.375 C-87.24069395 369.76054257 -87.24069395 369.76054257 -90 368 C-90 367.34 -90 366.68 -90 366 C-91.08861328 365.62875 -91.08861328 365.62875 -92.19921875 365.25 C-95.27845264 363.87572546 -97.31466039 362.25344071 -99.8125 360 C-100.60269531 359.29875 -101.39289063 358.5975 -102.20703125 357.875 C-104 356 -104 356 -104 354 C-104.66 354 -105.32 354 -106 354 C-106.18175781 353.31292969 -106.36351562 352.62585938 -106.55078125 351.91796875 C-106.80214844 351.01691406 -107.05351562 350.11585938 -107.3125 349.1875 C-107.55613281 348.29417969 -107.79976563 347.40085937 -108.05078125 346.48046875 C-109.03331739 343.91293604 -110.07121261 342.87414752 -112 341 C-111.57894737 336.57894737 -111.57894737 336.57894737 -110 335 C-109.73706944 330.96839809 -109.70595156 329.44107266 -112 326 C-111.48275862 322.48275862 -111.48275862 322.48275862 -110 321 C-110.38443579 317.6682232 -110.89090238 314.44630845 -111.6875 311.1875 C-111.790625 310.465625 -111.89375 309.74375 -112 309 C-111.34 308.34 -110.68 307.68 -110 307 C-109.66666667 304 -109.66666667 304 -110 301 C-110.66 300.34 -111.32 299.68 -112 299 C-111.92894245 296.43896735 -111.75722207 293.98001909 -111.5 291.4375 C-110.98969297 285.20715315 -110.89683503 279.99402017 -113 274 C-113.99 273.67 -114.98 273.34 -116 273 C-117.3166727 270.75960369 -118.46033255 268.59180956 -119.5625 266.25 C-119.86607422 265.62867188 -120.16964844 265.00734375 -120.48242188 264.3671875 C-125.17083844 254.68392192 -125.17083844 254.68392192 -125.4921875 248.90234375 C-125.55486816 247.94207275 -125.61754883 246.98180176 -125.68212891 245.99243164 C-125.74577637 244.9843042 -125.80942383 243.97617676 -125.875 242.9375 C-127.40377669 223.19360948 -136.09017327 207.74121462 -145.85009766 190.85107422 C-146.26050293 190.13064941 -146.6709082 189.41022461 -147.09375 188.66796875 C-147.46177734 188.03141357 -147.82980469 187.3948584 -148.20898438 186.73901367 C-149 185 -149 185 -149 182 C-149.66 182 -150.32 182 -151 182 C-151.50789063 180.98421875 -152.01578125 179.9684375 -152.5390625 178.921875 C-152.8693042 178.2616333 -153.1995459 177.6013916 -153.53979492 176.92114258 C-154.26990396 175.46043173 -154.99921954 173.99932405 -155.7277832 172.5378418 C-157.36471161 169.25643822 -159.0096062 165.98138659 -160.69140625 162.72265625 C-171.69780807 141.31333678 -178.10744234 119.18384234 -177 95 C-176.9695459 94.30422852 -176.9390918 93.60845703 -176.90771484 92.89160156 C-175.78495548 72.01305517 -168.64186717 50.73188301 -156 34 C-155.67 33.01 -155.34 32.02 -155 31 C-154.34 31 -153.68 31 -153 31 C-152.814375 30.34 -152.62875 29.68 -152.4375 29 C-150.39191226 24.73094732 -147.42815357 21.25836294 -144 18 C-143.34 18 -142.68 18 -142 18 C-141.77570313 17.43667969 -141.55140625 16.87335938 -141.3203125 16.29296875 C-132.52790767 1.02331894 -107.38899559 -8.29070247 -91.3125 -12.6875 C-60.11731556 -19.73157391 -27.01467226 -19.18305717 0 0 Z M-104 303 C-104 303.33 -104 303.66 -104 304 C-99.71 304 -95.42 304 -91 304 C-91 303.67 -91 303.34 -91 303 C-95.29 303 -99.58 303 -104 303 Z M-20 314 C-20.99 314.66 -21.98 315.32 -23 316 C-21.35 315.67 -19.7 315.34 -18 315 C-18.66 314.67 -19.32 314.34 -20 314 Z M-103 317 C-103 317.99 -103 318.98 -103 320 C-97.06 319.67 -91.12 319.34 -85 319 C-85 318.67 -85 318.34 -85 318 C-90.96674616 316.67405641 -96.92583615 316.9115413 -103 317 Z M-26.6875 327.5 C-27.86699219 327.7784375 -29.04648438 328.056875 -30.26171875 328.34375 C-31.16535156 328.5603125 -32.06898438 328.776875 -33 329 C-33 329.33 -33 329.66 -33 330 C-27.22192976 330.2358396 -22.48675196 329.86783046 -17 328 C-17 327.34 -17 326.68 -17 326 C-20.44122867 326 -23.34012803 326.70458488 -26.6875 327.5 Z M-103 333 C-103 333.33 -103 333.66 -103 334 C-98.38 334 -93.76 334 -89 334 C-89 333.67 -89 333.34 -89 333 C-93.62 333 -98.24 333 -103 333 Z " fill="#FDEF01" transform="translate(272,112)"/>
<path d="M0 0 C1.45806798 0.91708869 2.91639559 1.83376474 4.375 2.75 C8.47983231 5.50150873 12.27344418 8.58544621 16.0625 11.75 C16.64757324 12.23436523 17.23264648 12.71873047 17.83544922 13.21777344 C19.26427872 14.4322572 20.63766905 15.71136547 22 17 C22 17.66 22 18.32 22 19 C22.66 19 23.32 19 24 19 C45.7600741 39.52504286 56.35269503 69.45508304 57.3125 98.75 C56.79892113 119.72113711 51.59944983 141.33130252 42 160 C41.4740625 161.12019531 40.948125 162.24039063 40.40625 163.39453125 C35.87010531 172.96119968 30.52078269 181.94779043 24.92407227 190.93066406 C14.9628138 206.95861623 9.06290736 222.98502285 7.62109375 241.8984375 C6.21894905 259.52188945 6.21894905 259.52188945 1 267 C0.49855469 267.74636719 -0.00289062 268.49273437 -0.51953125 269.26171875 C-2.54321124 272.1153637 -4.25147897 274.48835271 -7.16015625 276.4765625 C-9.47000429 278.0241061 -9.47000429 278.0241061 -9.375 281.9375 C-9.22822896 285.15472111 -8.47628784 287.1458435 -7 290 C-7.31902577 293.34977063 -7.59179639 294.59179639 -10 297 C-9.56237193 300.17280351 -8.22638495 303.05667611 -7 306 C-8.32 307.65 -9.64 309.3 -11 311 C-9.77992056 313.6905528 -9.77992056 313.6905528 -8 316 C-7.95919217 317.99958364 -7.95745644 320.00045254 -8 322 C-8.99 322.33 -9.98 322.66 -11 323 C-11.25030977 325.41619823 -11.25030977 325.41619823 -11 328 C-10.01 328.66 -9.02 329.32 -8 330 C-7.625 333 -7.625 333 -8 336 C-8.99 336.66 -9.98 337.32 -11 338 C-11.72382467 340.05925139 -11.72382467 340.05925139 -12 342 C-11.34 342 -10.68 342 -10 342 C-9.1875 344.625 -9.1875 344.625 -9 348 C-12.68614072 353.58866496 -18.57835995 359.85945332 -25 362 C-25 362.66 -25 363.32 -25 364 C-25.78375 364.2475 -26.5675 364.495 -27.375 364.75 C-30.50418799 366.24008952 -30.53700617 366.99871119 -32 370 C-35.67406336 374.5710178 -39.45422461 378.77777631 -45.48828125 379.76171875 C-46.31714844 379.84035156 -47.14601562 379.91898437 -48 380 C-49.18980469 380.13019531 -50.37960938 380.26039063 -51.60546875 380.39453125 C-61.79602757 381.35389089 -73.27878261 382.15443769 -82 376 C-83.73046875 374.2109375 -83.73046875 374.2109375 -85.1875 372.375 C-87.24069395 369.76054257 -87.24069395 369.76054257 -90 368 C-90 367.34 -90 366.68 -90 366 C-91.08861328 365.62875 -91.08861328 365.62875 -92.19921875 365.25 C-95.27845264 363.87572546 -97.31466039 362.25344071 -99.8125 360 C-100.60269531 359.29875 -101.39289063 358.5975 -102.20703125 357.875 C-104 356 -104 356 -104 354 C-104.66 354 -105.32 354 -106 354 C-106.18175781 353.31292969 -106.36351562 352.62585938 -106.55078125 351.91796875 C-106.80214844 351.01691406 -107.05351562 350.11585938 -107.3125 349.1875 C-107.55613281 348.29417969 -107.79976563 347.40085937 -108.05078125 346.48046875 C-109.03331739 343.91293604 -110.07121261 342.87414752 -112 341 C-111.57894737 336.57894737 -111.57894737 336.57894737 -110 335 C-109.73706944 330.96839809 -109.70595156 329.44107266 -112 326 C-111.48275862 322.48275862 -111.48275862 322.48275862 -110 321 C-110.38443579 317.6682232 -110.89090238 314.44630845 -111.6875 311.1875 C-111.790625 310.465625 -111.89375 309.74375 -112 309 C-111.34 308.34 -110.68 307.68 -110 307 C-109.66666667 304 -109.66666667 304 -110 301 C-110.66 300.34 -111.32 299.68 -112 299 C-111.92894245 296.43896735 -111.75722207 293.98001909 -111.5 291.4375 C-110.98969297 285.20715315 -110.89683503 279.99402017 -113 274 C-113.99 273.67 -114.98 273.34 -116 273 C-117.3166727 270.75960369 -118.46033255 268.59180956 -119.5625 266.25 C-119.86607422 265.62867188 -120.16964844 265.00734375 -120.48242188 264.3671875 C-125.17083844 254.68392192 -125.17083844 254.68392192 -125.4921875 248.90234375 C-125.55486816 247.94207275 -125.61754883 246.98180176 -125.68212891 245.99243164 C-125.74577637 244.9843042 -125.80942383 243.97617676 -125.875 242.9375 C-127.40377669 223.19360948 -136.09017327 207.74121462 -145.85009766 190.85107422 C-146.26050293 190.13064941 -146.6709082 189.41022461 -147.09375 188.66796875 C-147.46177734 188.03141357 -147.82980469 187.3948584 -148.20898438 186.73901367 C-149 185 -149 185 -149 182 C-149.66 182 -150.32 182 -151 182 C-151.50789063 180.98421875 -152.01578125 179.9684375 -152.5390625 178.921875 C-152.8693042 178.2616333 -153.1995459 177.6013916 -153.53979492 176.92114258 C-154.26990396 175.46043173 -154.99921954 173.99932405 -155.7277832 172.5378418 C-157.36471161 169.25643822 -159.0096062 165.98138659 -160.69140625 162.72265625 C-171.69780807 141.31333678 -178.10744234 119.18384234 -177 95 C-176.9695459 94.30422852 -176.9390918 93.60845703 -176.90771484 92.89160156 C-175.78495548 72.01305517 -168.64186717 50.73188301 -156 34 C-155.67 33.01 -155.34 32.02 -155 31 C-154.34 31 -153.68 31 -153 31 C-152.814375 30.34 -152.62875 29.68 -152.4375 29 C-150.39191226 24.73094732 -147.42815357 21.25836294 -144 18 C-143.34 18 -142.68 18 -142 18 C-141.77570313 17.43667969 -141.55140625 16.87335938 -141.3203125 16.29296875 C-132.52790767 1.02331894 -107.38899559 -8.29070247 -91.3125 -12.6875 C-60.11731556 -19.73157391 -27.01467226 -19.18305717 0 0 Z M-94 -2 C-95.22203125 -1.58105469 -96.4440625 -1.16210938 -97.703125 -0.73046875 C-109.14157077 3.38267099 -124.03821818 10.36791431 -132 20 C-132 20.66 -132 21.32 -132 22 C-132.57105469 22.23847656 -133.14210937 22.47695312 -133.73046875 22.72265625 C-145.55535978 29.37797357 -152.40618656 44.9125284 -157 57 C-157.49919573 58.26333893 -157.99923434 59.52634504 -158.5 60.7890625 C-159.83072154 64.18017554 -161.08946254 67.59185552 -162.30224609 71.02685547 C-162.94245804 72.83727988 -163.60491915 74.63979623 -164.26953125 76.44140625 C-172.21028792 101.10545259 -166.49233568 130.5422491 -154.875 153.2421875 C-154.54242188 153.86722168 -154.20984375 154.49225586 -153.8671875 155.13623047 C-152.9670417 157.07083435 -152.45132427 158.91895759 -152 161 C-151.34 161 -150.68 161 -150 161 C-149.62875 162.2065625 -149.62875 162.2065625 -149.25 163.4375 C-145.91994031 172.92817012 -141.14171735 181.48930567 -135.9375 190.0625 C-131.861605 196.82430529 -128.65496133 203.56610828 -126 211 C-125.34 211 -124.68 211 -124 211 C-123.8453125 212.36125 -123.8453125 212.36125 -123.6875 213.75 C-123.22673517 217.01429166 -122.47111714 220.12737841 -121.625 223.3125 C-120.2739736 228.51427796 -119.37654881 233.69623129 -118.5625 239 C-116.43031378 253.14758068 -116.43031378 253.14758068 -109 265 C-106.03217692 265.70177373 -106.03217692 265.70177373 -102.73828125 265.5234375 C-100.93713867 265.50603516 -100.93713867 265.50603516 -99.09960938 265.48828125 C-97.84986328 265.45089844 -96.60011719 265.41351563 -95.3125 265.375 C-94.05115234 265.36082031 -92.78980469 265.34664063 -91.49023438 265.33203125 C-85.86949432 265.77157086 -85.86949432 265.77157086 -81 264 C-80.90590521 261.97505769 -80.88256878 259.9468013 -80.88647461 257.91967773 C-80.88655014 256.61840439 -80.88662567 255.31713104 -80.88670349 253.97642517 C-80.89181091 252.54548098 -80.89702692 251.11453718 -80.90234375 249.68359375 C-80.90420797 248.2277074 -80.90563185 246.77182043 -80.90663147 245.31593323 C-80.91045635 241.47720621 -80.92028636 237.63851681 -80.93133545 233.79980469 C-80.94155022 229.88542184 -80.94612923 225.97103294 -80.95117188 222.05664062 C-80.96190866 214.37107657 -80.97898471 206.68554355 -81 199 C-81.66 199 -82.32 199 -83 199 C-81.99806563 195.20696275 -81.18975773 192.28463659 -79 189 C-78.60236958 184.52849692 -79.38555796 181.26278333 -81.01171875 177.11328125 C-81.44033203 176.00919922 -81.86894531 174.90511719 -82.31054688 173.76757812 C-82.99213867 172.05731445 -82.99213867 172.05731445 -83.6875 170.3125 C-84.12255859 169.19166016 -84.55761719 168.07082031 -85.00585938 166.91601562 C-87.46415284 160.64099394 -90.09977278 154.48282425 -92.92602539 148.36547852 C-94.20142751 145.55634663 -95.31250802 142.70838978 -96.375 139.8125 C-98.27529195 134.79668238 -100.29549331 129.85360964 -102.4375 124.9375 C-102.87715088 123.92828491 -102.87715088 123.92828491 -103.32568359 122.89868164 C-105.65785442 117.62152079 -108.25997093 112.51495106 -111.03125 107.453125 C-112.09964749 104.74766684 -112.04581807 103.66434603 -111 101 C-105.21816096 99.02113623 -100.05778246 98.70703941 -93.97265625 98.734375 C-93.02490829 98.73246155 -92.07716034 98.7305481 -91.10069275 98.72857666 C-89.10464206 98.72722114 -87.10858237 98.73087315 -85.11254883 98.73925781 C-82.07547978 98.74995429 -79.0390038 98.73934698 -76.00195312 98.7265625 C-74.05468621 98.72788444 -72.10741966 98.73044754 -70.16015625 98.734375 C-68.81136131 98.72830231 -68.81136131 98.72830231 -67.43531799 98.72210693 C-61.94818455 98.76243811 -57.27736122 99.49432148 -52 101 C-48.90759149 101.43978864 -46.07652359 101.60442507 -43 101 C-40.33172123 98.85445315 -40.33172123 98.85445315 -39 96 C-39 95.01 -39 94.02 -39 93 C-38.01 93 -37.02 93 -36 93 C-35.67 95.31 -35.34 97.62 -35 100 C-34.00818726 100.03758423 -34.00818726 100.03758423 -32.99633789 100.07592773 C-30.01817695 100.19153102 -27.0403608 100.31441754 -24.0625 100.4375 C-23.02158203 100.47681641 -21.98066406 100.51613281 -20.90820312 100.55664062 C-19.91884766 100.59853516 -18.92949219 100.64042969 -17.91015625 100.68359375 C-16.99371338 100.72025146 -16.07727051 100.75690918 -15.13305664 100.79467773 C-13 101 -13 101 -12 102 C-11.72961397 105.65236348 -12.25511328 108.19799372 -13.69921875 111.5390625 C-14.0657959 112.41079102 -14.43237305 113.28251953 -14.81005859 114.18066406 C-15.20273926 115.11104492 -15.59541992 116.04142578 -16 117 C-16.78445234 118.98418347 -17.56154574 120.97128889 -18.33203125 122.9609375 C-18.93591675 124.51917236 -18.93591675 124.51917236 -19.55200195 126.10888672 C-23.41987369 136.13104208 -27.16687963 146.17162101 -30.65625 156.33178711 C-33.15596152 163.56728023 -36.08042808 170.56558821 -39.12109375 177.58984375 C-40.30824061 180.84526424 -40.25453072 183.56383533 -40 187 C-39.34 187.99 -38.68 188.98 -38 190 C-37.69029236 193.15663147 -37.69029236 193.15663147 -37.60522461 197.10180664 C-37.58703171 197.82079636 -37.56883881 198.53978607 -37.5500946 199.28056335 C-37.4920259 201.65697901 -37.4473333 204.03346017 -37.40234375 206.41015625 C-37.36372943 208.06019861 -37.32412977 209.71021819 -37.28358459 211.36021423 C-37.17886731 215.70432249 -37.08483622 220.04859048 -36.99383545 224.39300537 C-36.84700261 231.35078226 -36.68715937 238.30824442 -36.52136421 245.26559258 C-36.46537375 247.69961598 -36.41583576 250.13371162 -36.3669281 252.56788635 C-36.3332939 254.05445841 -36.29945597 255.54102588 -36.26538086 257.02758789 C-36.2381041 258.3287001 -36.21082733 259.62981232 -36.182724 260.97035217 C-36.20379078 263.91954812 -36.20379078 263.91954812 -35 266 C-30.89584811 266.02898097 -26.79172247 266.0467922 -22.6875 266.0625 C-20.93663086 266.07506836 -20.93663086 266.07506836 -19.15039062 266.08789062 C-18.03212891 266.09111328 -16.91386719 266.09433594 -15.76171875 266.09765625 C-14.2142395 266.10551147 -14.2142395 266.10551147 -12.63549805 266.11352539 C-9.89053726 266.11635 -9.89053726 266.11635 -7 265 C-7 264.34 -7 263.68 -7 263 C-6.34 263 -5.68 263 -5 263 C-1.64960769 252.36072228 0.08871934 241.67074829 1.60449219 230.63354492 C3.6061019 216.12816889 7.23049057 204.46116503 14.69238281 191.72192383 C17.71761659 186.54922602 20.57108625 181.2957158 23.375 176 C23.80385498 175.19876709 24.23270996 174.39753418 24.67456055 173.57202148 C26.84454326 169.45498467 28.69050378 165.48970132 30 161 C30.66 161 31.32 161 32 161 C32.31453125 160.11699219 32.6290625 159.23398437 32.953125 158.32421875 C33.38109375 157.12410156 33.8090625 155.92398438 34.25 154.6875 C34.47816406 154.04304932 34.70632813 153.39859863 34.94140625 152.73461914 C35.93904751 149.92526972 36.94802539 147.13110015 38.046875 144.359375 C39.13340305 141.59852503 40.08419968 138.82257859 41 136 C41.21720703 135.33838867 41.43441406 134.67677734 41.65820312 133.99511719 C45.35401485 122.28485024 46.50474063 110.83914556 46.5625 98.625 C46.58425293 96.64850464 46.58425293 96.64850464 46.60644531 94.63208008 C46.48023629 82.32131319 43.8403808 70.93404387 38.625 59.75 C38.32392334 59.08653564 38.02284668 58.42307129 37.71264648 57.73950195 C27.92524639 36.45660851 14.02360181 19.34233888 -6 7 C-6.57782227 6.64180176 -7.15564453 6.28360352 -7.75097656 5.91455078 C-15.14760573 1.37194592 -22.59868696 -2.62648219 -31 -5 C-32.24394531 -5.35449219 -33.48789063 -5.70898438 -34.76953125 -6.07421875 C-42.02100983 -7.63212722 -49.49139494 -7.43876162 -56.875 -7.4375 C-57.65490295 -7.43889984 -58.43480591 -7.44029968 -59.23834229 -7.44174194 C-71.48972589 -7.42364141 -82.4511289 -6.34134202 -94 -2 Z M-104 303 C-104 303.33 -104 303.66 -104 304 C-99.71 304 -95.42 304 -91 304 C-91 303.67 -91 303.34 -91 303 C-95.29 303 -99.58 303 -104 303 Z M-20 314 C-20.99 314.66 -21.98 315.32 -23 316 C-21.35 315.67 -19.7 315.34 -18 315 C-18.66 314.67 -19.32 314.34 -20 314 Z M-103 317 C-103 317.99 -103 318.98 -103 320 C-97.06 319.67 -91.12 319.34 -85 319 C-85 318.67 -85 318.34 -85 318 C-90.96674616 316.67405641 -96.92583615 316.9115413 -103 317 Z M-26.6875 327.5 C-27.86699219 327.7784375 -29.04648438 328.056875 -30.26171875 328.34375 C-31.16535156 328.5603125 -32.06898438 328.776875 -33 329 C-33 329.33 -33 329.66 -33 330 C-27.22192976 330.2358396 -22.48675196 329.86783046 -17 328 C-17 327.34 -17 326.68 -17 326 C-20.44122867 326 -23.34012803 326.70458488 -26.6875 327.5 Z M-103 333 C-103 333.33 -103 333.66 -103 334 C-98.38 334 -93.76 334 -89 334 C-89 333.67 -89 333.34 -89 333 C-93.62 333 -98.24 333 -103 333 Z " fill="#090907" transform="translate(272,112)"/>
<path d="M0 0 C1.45806798 0.91708869 2.91639559 1.83376474 4.375 2.75 C8.47983231 5.50150873 12.27344418 8.58544621 16.0625 11.75 C16.64757324 12.23436523 17.23264648 12.71873047 17.83544922 13.21777344 C19.26427872 14.4322572 20.63766905 15.71136547 22 17 C22 17.66 22 18.32 22 19 C22.66 19 23.32 19 24 19 C45.7600741 39.52504286 56.35269503 69.45508304 57.3125 98.75 C56.79892113 119.72113711 51.59944983 141.33130252 42 160 C41.4740625 161.12019531 40.948125 162.24039063 40.40625 163.39453125 C35.87010531 172.96119968 30.52078269 181.94779043 24.92407227 190.93066406 C14.9628138 206.95861623 9.06290736 222.98502285 7.62109375 241.8984375 C6.2323978 259.31540383 6.2323978 259.31540383 1 267 C0.59910156 267.63421875 0.19820312 268.2684375 -0.21484375 268.921875 C-1.10661359 270.30554636 -2.04653993 271.65809323 -3 273 C-3.33 271.68 -3.66 270.36 -4 269 C-4.99 269 -5.98 269 -7 269 C-8.6875 267 -8.6875 267 -10 265 C-9.01 265 -8.02 265 -7 265 C-7 264.34 -7 263.68 -7 263 C-6.34 263 -5.68 263 -5 263 C-2.98902784 253.66555031 -1.60313971 244.23808197 -0.17724609 234.80151367 C2.21364208 219.02128889 5.51411644 205.65746759 13.69458008 191.72192383 C16.71904857 186.55897073 19.5351043 181.29952167 22.3125 176 C22.94321411 174.79815063 22.94321411 174.79815063 23.58666992 173.57202148 C25.76706501 169.40195559 27.91168041 165.21718907 30 161 C30.66 161 31.32 161 32 161 C32.061875 160.071875 32.12375 159.14375 32.1875 158.1875 C32.65170748 154.90581103 33.6884041 152.44533906 35.1875 149.5 C39.62341225 140.26606022 41.6789976 129.93691261 44 120 C44.18554443 119.21270508 44.37108887 118.42541016 44.56225586 117.61425781 C45.43710962 112.38953165 45.26565758 107.06112706 45.29516602 101.77490234 C45.30657848 100.3594352 45.32685589 98.94400732 45.35668945 97.52880859 C45.63961347 84.06541866 43.3687269 72.06704759 37.625 59.75 C37.32392334 59.08653564 37.02284668 58.42307129 36.71264648 57.73950195 C27.06167255 36.75326988 13.68115315 20.21110325 -6 8 C-6.57927246 7.64035156 -7.15854492 7.28070313 -7.75537109 6.91015625 C-15.15020429 2.36943376 -22.60133424 -1.62723009 -31 -4 C-32.24394531 -4.35449219 -33.48789063 -4.70898438 -34.76953125 -5.07421875 C-42.02100983 -6.63212722 -49.49139494 -6.43876162 -56.875 -6.4375 C-57.65490295 -6.43889984 -58.43480591 -6.44029968 -59.23834229 -6.44174194 C-71.48972589 -6.42364141 -82.4511289 -5.34134202 -94 -1 C-95.22203125 -0.58105469 -96.4440625 -0.16210938 -97.703125 0.26953125 C-111.07397009 5.07754061 -124.1640425 12.65473726 -134 23 C-134.80179688 23.82757813 -135.60359375 24.65515625 -136.4296875 25.5078125 C-145.39840636 35.10692055 -151.3447627 44.75090686 -156 57 C-156.49919573 58.26333893 -156.99923434 59.52634504 -157.5 60.7890625 C-158.83072154 64.18017554 -160.08946254 67.59185552 -161.30224609 71.02685547 C-161.94245804 72.83727988 -162.60491915 74.63979623 -163.26953125 76.44140625 C-170.88110285 100.08300144 -166.04519982 129.17346883 -154.921875 151.12792969 C-154.21723944 152.47083108 -153.50105099 153.8077824 -152.76953125 155.13623047 C-152 157 -152 157 -152 161 C-151.34 161 -150.68 161 -150 161 C-145.13495715 170.55702093 -145.13495715 170.55702093 -143.4375 174.6875 C-141.50048318 179.1510605 -139.07314548 183.23552899 -136.55078125 187.3828125 C-131.83986118 195.143371 -127.91294863 202.07290639 -126 211 C-125.34 211 -124.68 211 -124 211 C-123.04479531 214.07272387 -122.14286056 217.15863855 -121.25 220.25 C-120.97800781 221.12269531 -120.70601562 221.99539063 -120.42578125 222.89453125 C-119.74596618 225.30144408 -119.17317041 227.5040372 -119 230 C-120.734375 232.609375 -120.734375 232.609375 -123 234 C-123.66 234 -124.32 234 -125 234 C-125 235.65 -125 237.3 -125 239 C-125.33 239 -125.66 239 -126 239 C-126.08636719 238.36835938 -126.17273438 237.73671875 -126.26171875 237.0859375 C-128.44174418 223.20577556 -133.88594981 211.79283508 -140.91748047 199.84375 C-142.4784987 197.18501981 -143.99812085 194.50502552 -145.5 191.8125 C-145.9640625 190.99394531 -146.428125 190.17539062 -146.90625 189.33203125 C-148.05388944 186.88510001 -148.58390596 184.6620562 -149 182 C-149.66 182 -150.32 182 -151 182 C-151.50789063 180.98421875 -152.01578125 179.9684375 -152.5390625 178.921875 C-152.8693042 178.2616333 -153.1995459 177.6013916 -153.53979492 176.92114258 C-154.26990396 175.46043173 -154.99921954 173.99932405 -155.7277832 172.5378418 C-157.36471161 169.25643822 -159.0096062 165.98138659 -160.69140625 162.72265625 C-171.69780807 141.31333678 -178.10744234 119.18384234 -177 95 C-176.9695459 94.30422852 -176.9390918 93.60845703 -176.90771484 92.89160156 C-175.78495548 72.01305517 -168.64186717 50.73188301 -156 34 C-155.67 33.01 -155.34 32.02 -155 31 C-154.34 31 -153.68 31 -153 31 C-152.814375 30.34 -152.62875 29.68 -152.4375 29 C-150.39191226 24.73094732 -147.42815357 21.25836294 -144 18 C-143.34 18 -142.68 18 -142 18 C-141.77570313 17.43667969 -141.55140625 16.87335938 -141.3203125 16.29296875 C-132.52790767 1.02331894 -107.38899559 -8.29070247 -91.3125 -12.6875 C-60.11731556 -19.73157391 -27.01467226 -19.18305717 0 0 Z " fill="#181712" transform="translate(272,112)"/>
<path d="M0 0 C0.80308594 -0.03738281 1.60617188 -0.07476562 2.43359375 -0.11328125 C6.80675265 -0.17812216 8.56624782 -0.05894001 12.1328125 2.7109375 C14.125 5.375 14.125 5.375 15.125 8.375 C15.785 8.705 16.445 9.035 17.125 9.375 C17.125 6.405 17.125 3.435 17.125 0.375 C19.81277802 0.3205793 22.49943212 0.28112734 25.1875 0.25 C25.93966797 0.23324219 26.69183594 0.21648437 27.46679688 0.19921875 C32.38668171 0.15662234 36.40667157 0.81706137 41.125 2.375 C43.10319833 2.92019246 45.0822887 3.46216483 47.0625 4 C48.02027344 4.26039063 48.97804687 4.52078125 49.96484375 4.7890625 C51.03412109 5.07910156 51.03412109 5.07910156 52.125 5.375 C51.98331863 6.81291516 51.83648957 8.2503237 51.6875 9.6875 C51.56568359 10.88826172 51.56568359 10.88826172 51.44140625 12.11328125 C51.125 14.375 51.125 14.375 50.125 17.375 C54.22759573 14.22967661 54.81433819 11.27408323 55.53515625 6.3984375 C56.125 4.375 56.125 4.375 59.125 2.375 C61.02612305 2.14794922 61.02612305 2.14794922 63.13671875 2.1796875 C63.89404297 2.18613281 64.65136719 2.19257813 65.43164062 2.19921875 C66.21732422 2.21597656 67.00300781 2.23273438 67.8125 2.25 C68.60978516 2.25902344 69.40707031 2.26804688 70.22851562 2.27734375 C72.194139 2.30088415 74.15960775 2.33675453 76.125 2.375 C77.67459128 7.09584785 76.29579088 10.28926605 74.375 14.625 C73.80796612 15.96663397 73.24284951 17.30907993 72.6796875 18.65234375 C72.40737305 19.2954248 72.13505859 19.93850586 71.85449219 20.60107422 C70.96412585 22.76620199 70.21017834 24.95722083 69.5 27.1875 C68.55481546 30.14325049 67.49073216 33.00396082 66.3125 35.875 C64.5050945 40.30143838 62.92881964 44.79257918 61.375 49.3125 C58.84771851 56.65451736 55.92536503 63.78013216 52.75292969 70.86694336 C50.75616693 75.43146434 49.57974277 79.40578195 49.125 84.375 C47.46885343 84.75718767 45.80042976 85.08895102 44.125 85.375 C43.125 84.375 43.125 84.375 43.01147461 81.04858398 C43.01163371 79.57274444 43.01732686 78.09689931 43.02734375 76.62109375 C43.0287587 75.84564713 43.03017365 75.0702005 43.03163147 74.27125549 C43.03724655 71.78496506 43.04980154 69.2987634 43.0625 66.8125 C43.06751306 65.13086067 43.0720763 63.44921994 43.07617188 61.76757812 C43.08722087 57.63668434 43.10449555 53.50585724 43.125 49.375 C45.105 48.385 47.085 47.395 49.125 46.375 C48.77713292 44.39963255 48.77713292 44.39963255 48.125 42.375 C45.77741719 41.20120859 44.27669581 41.22091545 41.66015625 41.1640625 C40.33661133 41.12152344 40.33661133 41.12152344 38.98632812 41.078125 C37.12454791 41.02615626 35.26253758 40.98185077 33.40039062 40.9453125 C32.51673828 40.914375 31.63308594 40.8834375 30.72265625 40.8515625 C29.91320557 40.83174316 29.10375488 40.81192383 28.26977539 40.79150391 C25.68221956 40.28901441 24.77650199 39.37728408 23.125 37.375 C22.939375 38.303125 22.939375 38.303125 22.75 39.25 C22.125 41.375 22.125 41.375 20.125 43.375 C19.47732207 45.94561311 19.47732207 45.94561311 19.125 48.375 C20.5790625 48.560625 20.5790625 48.560625 22.0625 48.75 C23.073125 48.95625 24.08375 49.1625 25.125 49.375 C27.37078046 53.86656092 26.31084432 60.03357908 26.31030273 65.03295898 C26.3124881 67.30015866 26.33064493 69.56687089 26.34960938 71.83398438 C26.35254362 73.27343583 26.35452821 74.71288961 26.35546875 76.15234375 C26.35957764 77.46452881 26.36368652 78.77671387 26.36791992 80.12866211 C26.125 83.375 26.125 83.375 24.125 86.375 C22.475 86.045 20.825 85.715 19.125 85.375 C18.97804687 84.694375 18.83109375 84.01375 18.6796875 83.3125 C15.62759405 70.12184326 10.42171623 57.78072658 5.00830078 45.40673828 C4.00420667 43.09715532 3.01488754 40.7815513 2.02734375 38.46484375 C1.65569092 37.59351807 1.28403809 36.72219238 0.90112305 35.82446289 C0.1351827 34.02827998 -0.63028144 32.23189392 -1.39526367 30.43530273 C-3.3017768 25.97680235 -5.24240463 21.53971205 -7.265625 17.1328125 C-7.64154785 16.30942383 -8.0174707 15.48603516 -8.40478516 14.63769531 C-9.11999096 13.07846375 -9.8432871 11.52291075 -10.57568359 9.97167969 C-12.98568485 4.70705454 -12.98568485 4.70705454 -11.875 1.375 C-7.88095224 0.04365075 -4.18404364 0.07317087 0 0 Z " fill="#FCEE04" transform="translate(177.875,212.625)"/>
<path d="M0 0 C0.99 0.33 1.98 0.66 3 1 C3 1.66 3 2.32 3 3 C3.58491211 2.98428955 4.16982422 2.9685791 4.77246094 2.95239258 C7.43154164 2.88989733 10.09046764 2.85096431 12.75 2.8125 C14.13058594 2.77479492 14.13058594 2.77479492 15.5390625 2.73632812 C16.42851562 2.72666016 17.31796875 2.71699219 18.234375 2.70703125 C19.05131836 2.6913208 19.86826172 2.67561035 20.70996094 2.65942383 C23.51240627 3.07620541 24.88847021 4.16195148 27 6 C26.8125 7.875 26.8125 7.875 26 10 C24.35 10.66 22.7 11.32 21 12 C21 23.55 21 35.1 21 47 C22.65 47 24.3 47 26 47 C25.67 47.99 25.34 48.98 25 50 C22.4375 51.1875 22.4375 51.1875 20 52 C20 52.66 20 53.32 20 54 C20.66 54 21.32 54 22 54 C25.57939796 56.98283164 26.86061228 58.58429096 27.32421875 63.29296875 C27.3135891 66.54209722 27.21642466 69.75843952 27 73 C24.61328125 72.65234375 24.61328125 72.65234375 22 72 C19 67.96551724 19 67.96551724 19 65 C18.34 65 17.68 65 17 65 C15.61767557 63.37373596 14.28062485 61.7074998 13 60 C8.99014284 60.91133117 7.30639489 61.61907663 4.6875 64.875 C3.34065513 67.36915716 2.42574333 69.23266833 2 72 C0.02 72 -1.96 72 -4 72 C-4.09706112 65.88514973 -3.77040851 60.06696699 -3 54 C-3.66 54 -4.32 54 -5 54 C-5.33 53.34 -5.66 52.68 -6 52 C-7.32 52.66 -8.64 53.32 -10 54 C-9.9278125 53.41992188 -9.855625 52.83984375 -9.78125 52.2421875 C-9.2533613 47.79912426 -8.88503374 43.48368422 -9 39 C-8.01 38.505 -8.01 38.505 -7 38 C-4.96564469 41.72965139 -4 43.66905042 -4 48 C-2.35 48.33 -0.7 48.66 1 49 C2.21077701 45.36766898 2.12444164 42.04878013 2.09765625 38.26953125 C2.0962413 37.51911057 2.09482635 36.76868988 2.09336853 35.99552917 C2.0877756 33.6011454 2.07522444 31.20685547 2.0625 28.8125 C2.05748408 27.18815239 2.05292134 25.56380332 2.04882812 23.93945312 C2.03780848 19.95959931 2.02054873 15.97981556 2 12 C-0.97 11.505 -0.97 11.505 -4 11 C-4.1875 8.6875 -4.1875 8.6875 -4 6 C-2.5625 4.375 -2.5625 4.375 -1 3 C-0.67 2.01 -0.34 1.02 0 0 Z " fill="#120F02" transform="translate(201,250)"/>
<path d="M0 0 C0.99 0 1.98 0 3 0 C3.495 3.465 3.495 3.465 4 7 C4.65597168 6.98952637 5.31194336 6.97905273 5.98779297 6.96826172 C8.95015658 6.92677497 11.91245916 6.90069738 14.875 6.875 C15.90753906 6.85824219 16.94007813 6.84148437 18.00390625 6.82421875 C18.99003906 6.81777344 19.97617188 6.81132812 20.9921875 6.8046875 C22.35899658 6.78897705 22.35899658 6.78897705 23.75341797 6.77294922 C26 7 26 7 28 9 C28.3599322 12.64493116 27.74064539 15.20780643 26.30078125 18.5390625 C25.9342041 19.41079102 25.56762695 20.28251953 25.18994141 21.18066406 C24.79726074 22.11104492 24.40458008 23.04142578 24 24 C23.21554766 25.98418347 22.43845426 27.97128889 21.66796875 29.9609375 C21.06408325 31.51917236 21.06408325 31.51917236 20.44799805 33.10888672 C16.58012631 43.13104208 12.83312037 53.17162101 9.34375 63.33178711 C6.85222986 70.54357002 3.99565153 77.55294261 0.87109375 84.515625 C-0.04592907 87.13099054 -0.20725744 89.05687591 -0.125 91.8125 C-0.10695313 92.60269531 -0.08890625 93.39289063 -0.0703125 94.20703125 C-0.04710937 94.79871094 -0.02390625 95.39039063 0 96 C-0.66 95.67 -1.32 95.34 -2 95 C-2 91.37 -2 87.74 -2 84 C-2.99 85.98 -3.98 87.96 -5 90 C-5.33 90 -5.66 90 -6 90 C-5.46491693 84.08261079 -3.66833936 79.39607125 -1.25 74 C1.86817504 66.8408537 4.54703554 59.68979311 6.9296875 52.2578125 C7.81896029 49.55104787 8.78469968 46.94204784 9.875 44.3125 C12.36872554 38.29281007 14.43043829 32.11706589 16.53857422 25.9543457 C16.82748535 25.11605225 17.11639648 24.27775879 17.4140625 23.4140625 C17.6713916 22.6607666 17.9287207 21.9074707 18.19384766 21.13134766 C19 19 19 19 20.09912109 16.97412109 C21.27677251 14.75516108 21.27677251 14.75516108 21 11 C18.20826945 10.97309896 15.41679652 10.95320947 12.625 10.9375 C11.8309375 10.92912109 11.036875 10.92074219 10.21875 10.91210938 C5.97607778 10.76959849 5.97607778 10.76959849 2 12 C1.18578446 14.78712244 0.59066387 17.59614949 -0.0234375 20.43359375 C-1 23 -1 23 -5 25 C-4.34 21.04 -3.68 17.08 -3 13 C-5.1346875 12.814375 -5.1346875 12.814375 -7.3125 12.625 C-10.80573798 12.32124018 -11.96474514 12.02350324 -15 10 C-19.90475866 8.90115941 -24.87021521 8.69622193 -29.875 8.4375 C-30.65875 8.39431641 -31.4425 8.35113281 -32.25 8.30664062 C-34.16650649 8.20146649 -36.08323333 8.10032075 -38 8 C-38 10.97 -38 13.94 -38 17 C-41.77528304 15.74157232 -42.10667045 14.37506571 -44 11 C-45.75045491 8.84420394 -45.75045491 8.84420394 -47.83178711 8.75708008 C-48.5563208 8.76118896 -49.28085449 8.76529785 -50.02734375 8.76953125 C-50.81947266 8.77146484 -51.61160156 8.77339844 -52.42773438 8.77539062 C-53.67006836 8.79375977 -53.67006836 8.79375977 -54.9375 8.8125 C-55.76185547 8.81314453 -56.58621094 8.81378906 -57.43554688 8.81445312 C-60.94488444 8.84011035 -63.63955301 8.879851 -67 10 C-64.53361334 18.07260599 -61.12563532 25.64945195 -57.625 33.3125 C-52.15208686 45.340145 -46.8514619 57.39497554 -42.3125 69.8125 C-42.01794922 70.60591797 -41.72339844 71.39933594 -41.41992188 72.21679688 C-39.74668542 76.77025609 -38.26907179 81.31756272 -37 86 C-37.99 85.34 -38.98 84.68 -40 84 C-40.66 85.32 -41.32 86.64 -42 88 C-42.54527344 86.52853516 -42.54527344 86.52853516 -43.1015625 85.02734375 C-46.59681749 75.62825968 -50.20204592 66.28168412 -54 57 C-54.3717334 56.09121094 -54.7434668 55.18242187 -55.12646484 54.24609375 C-63.30779447 34.21922344 -63.30779447 34.21922344 -72.703125 14.7421875 C-74 12 -74 12 -73.8125 9.75 C-73 8 -73 8 -71 6 C-65.75273237 4.71248074 -60.43973342 4.83862363 -55.0703125 4.83203125 C-54.1211496 4.82870285 -53.17198669 4.82537445 -52.19406128 4.82194519 C-50.19204185 4.81689732 -48.19001407 4.8145362 -46.18798828 4.81469727 C-43.14211014 4.81251227 -40.09659535 4.79433776 -37.05078125 4.77539062 C-35.09895956 4.77245587 -33.14713617 4.77047162 -31.1953125 4.76953125 C-29.84181198 4.75875298 -29.84181198 4.75875298 -28.46096802 4.74775696 C-22.95489766 4.76743323 -18.29794827 5.50444021 -13 7 C-10.33502328 7.23624406 -10.33502328 7.23624406 -8 7.125 C-6.68 7.08375 -5.36 7.0425 -4 7 C-2.68 4.69 -1.36 2.38 0 0 Z " fill="#201C01" transform="translate(233,205)"/>
<path d="M0 0 C1.32 0 2.64 0 4 0 C10.45205823 9.46301874 10.17783714 19.963165 10.25 31.0625 C10.26401855 32.59874023 10.26401855 32.59874023 10.27832031 34.16601562 C10.27413086 35.13345703 10.26994141 36.10089844 10.265625 37.09765625 C10.26336914 37.96914307 10.26111328 38.84062988 10.25878906 39.73852539 C10 42 10 42 8 45 C4.27698497 45.47730962 3.20808915 45.1387261 0 43 C-0.36076355 41.12704468 -0.36076355 41.12704468 -0.34057617 38.82568359 C-0.34034958 37.96494232 -0.34012299 37.10420105 -0.33988953 36.21737671 C-0.31666374 34.8220018 -0.31666374 34.8220018 -0.29296875 33.3984375 C-0.28872391 32.44683746 -0.28447906 31.49523743 -0.28010559 30.51480103 C-0.26327896 27.46791586 -0.22561954 24.42168609 -0.1875 21.375 C-0.17245831 19.31250954 -0.15876901 17.25000873 -0.14648438 15.1875 C-0.11336239 10.1247465 -0.06155284 5.06248446 0 0 Z " fill="#FDEF02" transform="translate(219,333)"/>
<path d="M0 0 C3.66446864 1.44670996 6.31057664 3.39654276 8.73828125 6.4609375 C9.12890625 9.6953125 9.12890625 9.6953125 8.98828125 13.2109375 C8.9521875 14.38140625 8.91609375 15.551875 8.87890625 16.7578125 C8.80929688 18.09585937 8.80929688 18.09585937 8.73828125 19.4609375 C6.3515625 19.11328125 6.3515625 19.11328125 3.73828125 18.4609375 C0.73828125 14.42645474 0.73828125 14.42645474 0.73828125 11.4609375 C0.07828125 11.4609375 -0.58171875 11.4609375 -1.26171875 11.4609375 C-2.64404318 9.83467346 -3.9810939 8.1684373 -5.26171875 6.4609375 C-9.27157591 7.37226867 -10.95532386 8.08001413 -13.57421875 11.3359375 C-14.92106362 13.83009466 -15.83597542 15.69360583 -16.26171875 18.4609375 C-18.24171875 18.4609375 -20.22171875 18.4609375 -22.26171875 18.4609375 C-22.49212409 12.81600657 -22.48902677 7.76405183 -20.26171875 2.4609375 C-14.46377761 -1.97827324 -6.90167789 -1.6449595 0 0 Z " fill="#E3D80D" transform="translate(219.26171875,303.5390625)"/>
<path d="M0 0 C6.15986299 5.27988256 8.35033365 12.30155704 10 20 C10.66 20 11.32 20 12 20 C12.95520469 23.07272387 13.85713944 26.15863855 14.75 29.25 C15.02199219 30.12269531 15.29398438 30.99539063 15.57421875 31.89453125 C16.25403382 34.30144408 16.82682959 36.5040372 17 39 C15.265625 41.609375 15.265625 41.609375 13 43 C12.34 43 11.68 43 11 43 C11 44.65 11 46.3 11 48 C10.67 48 10.34 48 10 48 C9.91363281 47.36835938 9.82726562 46.73671875 9.73828125 46.0859375 C7.78736198 33.66448823 3.49189695 23.00279842 -3.14086914 12.41723633 C-4.90134295 9.51118044 -6.01600258 7.56237633 -5.91796875 4.1171875 C-5 2 -5 2 -2.4375 0.6875 C-1.633125 0.460625 -0.82875 0.23375 0 0 Z " fill="#1F1E18" transform="translate(136,303)"/>
<path d="M0 0 C0.66 0 1.32 0 2 0 C2 13.86 2 27.72 2 42 C-0.475 42.495 -0.475 42.495 -3 43 C-6.49699189 39.50300811 -4.97785936 27.73577364 -5.05126953 22.98681641 C-4.73802395 4.73802395 -4.73802395 4.73802395 0 0 Z " fill="#FCEE0C" transform="translate(202,334)"/>
<path d="M0 0 C6.11977981 -0.04964874 12.23944086 -0.08583716 18.359375 -0.10986328 C20.43882288 -0.1198855 22.51825679 -0.13350687 24.59765625 -0.15087891 C27.59638936 -0.17529388 30.5949352 -0.18652117 33.59375 -0.1953125 C34.51490601 -0.20563507 35.43606201 -0.21595764 36.38513184 -0.22659302 C41.95674281 -0.22754911 46.64212438 0.47547289 52 2 C54.16075374 2.26266043 56.32838216 2.47693515 58.5 2.625 C59.5415625 2.69976562 60.583125 2.77453125 61.65625 2.8515625 C62.4296875 2.90054688 63.203125 2.94953125 64 3 C63.34 3.33 62.68 3.66 62 4 C61.67 4.99 61.34 5.98 61 7 C59.97003906 6.79503906 58.94007813 6.59007812 57.87890625 6.37890625 C47.57562653 4.40458859 37.47937107 3.38035264 27 3 C27 5.97 27 8.94 27 12 C23.22471696 10.74157232 22.89332955 9.37506571 21 6 C18.51942372 3.51942372 17.63807536 3.70980995 14.2109375 3.5859375 C12.79941406 3.52792969 12.79941406 3.52792969 11.359375 3.46875 C10.37453125 3.4378125 9.3896875 3.406875 8.375 3.375 C7.38242188 3.33632812 6.38984375 3.29765625 5.3671875 3.2578125 C2.91164615 3.1633686 0.4561159 3.07780125 -2 3 C-1.34 2.67 -0.68 2.34 0 2 C0 1.34 0 0.68 0 0 Z " fill="#100D00" transform="translate(168,210)"/>
<path d="M0 0 C0.66 0 1.32 0 2 0 C2.02312659 8.45767334 2.0409167 16.91533356 2.05181217 25.37303066 C2.05704031 29.29988658 2.06413669 33.22672094 2.07543945 37.15356445 C2.0862708 40.94014257 2.09227736 44.7266999 2.09487724 48.51329231 C2.09673105 49.96104319 2.10035081 51.40879288 2.10573006 52.85653496 C2.11294367 54.87757135 2.11340808 56.89862848 2.11352539 58.91967773 C2.115746 60.07217514 2.11796661 61.22467255 2.12025452 62.41209412 C2 65 2 65 1 66 C-3.42954431 66.33787197 -7.87173073 66.32507822 -12.3125 66.375 C-13.56224609 66.41238281 -14.81199219 66.44976562 -16.09960938 66.48828125 C-17.30037109 66.49988281 -18.50113281 66.51148438 -19.73828125 66.5234375 C-21.39404175 66.5531665 -21.39404175 66.5531665 -23.08325195 66.58349609 C-26 66 -26 66 -28.39135742 63.59228516 C-30 61 -30 61 -30 59 C-28.35 59.33 -26.7 59.66 -25 60 C-25.33 61.32 -25.66 62.64 -26 64 C-17.42 64 -8.84 64 0 64 C0 42.88 0 21.76 0 0 Z " fill="#C5BD24" transform="translate(189,311)"/>
<path d="M0 0 C1.32 0 2.64 0 4 0 C5.32917512 13.72117696 4.7250697 27.25491456 4 41 C2.68 41 1.36 41 0 41 C-0.94814052 38.15557844 -1.10599338 36.48209424 -1.0625 33.54296875 C-1.05476562 32.67736328 -1.04703125 31.81175781 -1.0390625 30.91992188 C-1.01318833 29.11002364 -0.98714885 27.30012776 -0.9609375 25.49023438 C-0.92819288 21.80919281 -0.9312767 18.39840289 -1.55859375 14.76171875 C-2.08427929 11.47269509 -1.6789651 8.88863877 -1.0625 5.625 C-0.86785156 4.56539063 -0.67320312 3.50578125 -0.47265625 2.4140625 C-0.23869141 1.21910156 -0.23869141 1.21910156 0 0 Z " fill="#F5E91F" transform="translate(211,335)"/>
<path d="M0 0 C4.57577298 1.2769599 7.36997706 2.98973707 11 6 C12.19788433 6.6852642 13.40689265 7.35136422 14.625 8 C17.69601843 9.81986277 19.18297708 11.00725637 21 14 C20.38125 14.061875 19.7625 14.12375 19.125 14.1875 C16.72238859 14.828919 16.72238859 14.828919 15.75 17.5625 C15.5025 18.366875 15.255 19.17125 15 20 C11.09409302 17.66231834 7.19784146 15.30918635 3.3125 12.9375 C2.73177734 12.58623047 2.15105469 12.23496094 1.55273438 11.87304688 C-0.87271972 10.38973449 -2.98164804 9.01835196 -5 7 C-4.01 6.67 -3.02 6.34 -2 6 C-1.34 6.33 -0.68 6.66 0 7 C0.66 6.01 1.32 5.02 2 4 C1.34 3.67 0.68 3.34 0 3 C0 2.01 0 1.02 0 0 Z " fill="#22201B" transform="translate(262,107)"/>
<path d="M0 0 C3.96 0 7.92 0 12 0 C12.66 1.32 13.32 2.64 14 4 C12.7625 4.37125 11.525 4.7425 10.25 5.125 C5.887987 6.75399954 4.14259694 8.80051 2 13 C1.23060319 15.22602615 1.23060319 15.22602615 1 17 C-0.98 17 -2.96 17 -5 17 C-5 14.03 -5 11.06 -5 8 C-4.34 8 -3.68 8 -3 8 C-2.01 5.36 -1.02 2.72 0 0 Z " fill="#EFE30C" transform="translate(202,305)"/>
<path d="M0 0 C1.04005702 3.38018531 1.08004482 6.4780279 1 10 C0.34 10 -0.32 10 -1 10 C-0.65213292 11.97536745 -0.65213292 11.97536745 0 14 C0.66 14.33 1.32 14.66 2 15 C2 40.08 2 65.16 2 91 C1.67 91 1.34 91 1 91 C0.97938507 90.0795842 0.95877014 89.1591684 0.93753052 88.21086121 C0.74170752 79.54373782 0.53669737 70.87689126 0.32132149 62.21023083 C0.2109155 57.75443097 0.10408453 53.29860474 0.00537109 48.8425293 C-0.08999442 44.54348594 -0.19468186 40.24476216 -0.3058815 35.94610023 C-0.34669338 34.30471042 -0.38412548 32.66323303 -0.41814804 31.02168846 C-0.46631574 28.72531818 -0.5264104 26.42955097 -0.58935547 24.13354492 C-0.62044403 22.82560471 -0.65153259 21.51766449 -0.68356323 20.17008972 C-0.76515606 16.84384344 -0.76515606 16.84384344 -3 14 C-3.53859693 8.39859188 -2.40894421 4.9182611 0 0 Z " fill="#F3E727" transform="translate(235,285)"/>
<path d="M0 0 C0.33 0 0.66 0 1 0 C1.02505615 1.05912598 1.0501123 2.11825195 1.07592773 3.20947266 C1.17043924 7.15685127 1.27055135 11.10407176 1.37231445 15.05126953 C1.41549846 16.7563099 1.45718447 18.46138892 1.49731445 20.16650391 C1.55541972 22.62414167 1.61899586 25.08158784 1.68359375 27.5390625 C1.70030624 28.29555084 1.71701874 29.05203918 1.73423767 29.83145142 C1.84890753 33.97259387 2.20958663 37.93260593 3 42 C4.65 42.33 6.3 42.66 8 43 C7.58606277 29.56554927 7.01470407 16.30095888 5 3 C7 4 7 4 8.0625 7.0625 C10.26519929 14.79925369 10.18244511 22.84093615 10.1875 30.8125 C10.19974609 31.84826172 10.21199219 32.88402344 10.22460938 33.95117188 C10.22750977 35.43907227 10.22750977 35.43907227 10.23046875 36.95703125 C10.23457764 37.85397705 10.23868652 38.75092285 10.24291992 39.67504883 C10 42 10 42 8 45 C4.27698497 45.47730962 3.20808915 45.1387261 0 43 C-0.36076355 41.12704468 -0.36076355 41.12704468 -0.34057617 38.82568359 C-0.34034958 37.96494232 -0.34012299 37.10420105 -0.33988953 36.21737671 C-0.31666374 34.8220018 -0.31666374 34.8220018 -0.29296875 33.3984375 C-0.28872391 32.44683746 -0.28447906 31.49523743 -0.28010559 30.51480103 C-0.26327896 27.46791586 -0.22561954 24.42168609 -0.1875 21.375 C-0.17245831 19.31250954 -0.15876901 17.25000873 -0.14648438 15.1875 C-0.11336239 10.1247465 -0.06155284 5.06248446 0 0 Z " fill="#BBB323" transform="translate(219,333)"/>
<path d="M0 0 C0.66 0 1.32 0 2 0 C2 0.66 2 1.32 2 2 C3.30195313 1.90460938 4.60390625 1.80921875 5.9453125 1.7109375 C7.67183467 1.59833823 9.39839962 1.48639357 11.125 1.375 C11.9809375 1.31054688 12.836875 1.24609375 13.71875 1.1796875 C18.63855756 0.87693011 22.3692294 1.01104607 27 3 C27.33 5.64 27.66 8.28 28 11 C24.91190305 12.76462683 23.76687864 13 20 13 C20.01160156 13.62261719 20.02320313 14.24523437 20.03515625 14.88671875 C20.13658071 25.27548181 19.54799794 35.62884758 19 46 C20.32 46 21.64 46 23 46 C23.33 45.34 23.66 44.68 24 44 C23.67 45.32 23.34 46.64 23 48 C21.35 47.67 19.7 47.34 18 47 C18 35.45 18 23.9 18 12 C19.98 11.01 21.96 10.02 24 9 C23.65213292 7.02463255 23.65213292 7.02463255 23 5 C20.65061112 3.82530556 19.04926795 3.79965111 16.4296875 3.68359375 C15.53378906 3.64169922 14.63789063 3.59980469 13.71484375 3.55664062 C12.77769531 3.51732422 11.84054688 3.47800781 10.875 3.4375 C9.93011719 3.39431641 8.98523438 3.35113281 8.01171875 3.30664062 C5.67462908 3.20040928 3.3374317 3.09836824 1 3 C0.67 2.01 0.34 1.02 0 0 Z " fill="#D3CB2C" transform="translate(203,250)"/>
<path d="M0 0 C0.99 0 1.98 0 3 0 C4.32378485 6.61892426 3.52762521 10.80288381 1 17 C0.74734375 17.68964844 0.4946875 18.37929687 0.234375 19.08984375 C-0.5 21 -0.5 21 -2 24 C-2.99 24.33 -3.98 24.66 -5 25 C-4.34 21.04 -3.68 17.08 -3 13 C-5.27864583 12.8046875 -7.55729167 12.609375 -9.8359375 12.4140625 C-12 12 -12 12 -14 10 C-10.7 10.33 -7.4 10.66 -4 11 C-4 10.01 -4 9.02 -4 8 C-3.125 5.95703125 -3.125 5.95703125 -2 3.8125 C-1.62875 3.09707031 -1.2575 2.38164062 -0.875 1.64453125 C-0.58625 1.10183594 -0.2975 0.55914062 0 0 Z " fill="#242002" transform="translate(233,205)"/>
<path d="M0 0 C4.12100919 7.41781654 3.27988729 15.9513938 3.3125 24.1875 C3.31644775 24.90365479 3.32039551 25.61980957 3.32446289 26.35766602 C3.35362231 37.65504076 2.36966952 48.1689194 -1 59 C-1.33 59 -1.66 59 -2 59 C-2.125 51.25 -2.125 51.25 -1 49 C-0.76144655 46.39024017 -0.57476663 43.79885256 -0.4296875 41.18359375 C-0.38433868 40.41193375 -0.33898987 39.64027374 -0.29226685 38.8452301 C-0.19768555 37.21375953 -0.10536843 35.58215637 -0.01513672 33.95043945 C0.12465418 31.44370133 0.27476197 28.93772443 0.42578125 26.43164062 C0.51624909 24.84899388 0.6061135 23.26631251 0.6953125 21.68359375 C0.76397018 20.55237343 0.76397018 20.55237343 0.83401489 19.39830017 C0.92954667 17.60055285 0.97038837 15.80004025 1 14 C0.67 13.67 0.34 13.34 0 13 C-0.07258946 10.81360547 -0.08373783 8.62499611 -0.0625 6.4375 C-0.05347656 5.23996094 -0.04445313 4.04242188 -0.03515625 2.80859375 C-0.02355469 1.88175781 -0.01195312 0.95492187 0 0 Z " fill="#EDE21D" transform="translate(315,186)"/>
<path d="M0 0 C0.66 0.33 1.32 0.66 2 1 C2.52527399 6.79677368 0.66652683 11.13016479 -1.5 16.375 C-1.83386719 17.20644531 -2.16773438 18.03789062 -2.51171875 18.89453125 C-3.33202904 20.93358826 -4.16159451 22.96833199 -5 25 C-6.32 24.67 -7.64 24.34 -9 24 C-8.43022658 21.47541883 -7.8447278 18.95621661 -7.25 16.4375 C-7.01410156 15.38079102 -7.01410156 15.38079102 -6.7734375 14.30273438 C-5.5427908 9.16715102 -3.83912126 3.83912126 0 0 Z " fill="#130F00" transform="translate(252,230)"/>
<path d="M0 0 C0.66 0 1.32 0 2 0 C2 13.86 2 27.72 2 42 C1.67 42 1.34 42 1 42 C1 29.79 1 17.58 1 5 C0.34 5 -0.32 5 -1 5 C-0.97679687 5.90363281 -0.95359375 6.80726563 -0.9296875 7.73828125 C-0.91164062 8.91777344 -0.89359375 10.09726562 -0.875 11.3125 C-0.85179687 12.48425781 -0.82859375 13.65601563 -0.8046875 14.86328125 C-1 18 -1 18 -3 21 C-3.27512419 23.32266082 -3.27512419 23.32266082 -3.1953125 25.88671875 C-3.18886719 26.82451172 -3.18242187 27.76230469 -3.17578125 28.72851562 C-3.15902344 29.70498047 -3.14226562 30.68144531 -3.125 31.6875 C-3.11597656 32.67556641 -3.10695312 33.66363281 -3.09765625 34.68164062 C-3.0740843 37.12133765 -3.04118022 39.56054697 -3 42 C-3.33 42 -3.66 42 -4 42 C-4.87298941 31.14190758 -5.54745078 20.5352628 -3.6875 9.75 C-3.55754639 8.99477051 -3.42759277 8.23954102 -3.29370117 7.46142578 C-2.29303908 2.29303908 -2.29303908 2.29303908 0 0 Z " fill="#B6AE1E" transform="translate(202,334)"/>
<path d="M0 0 C3.875 0.875 3.875 0.875 5 2 C4.93462337 4.90925981 4.80682403 7.78513398 4.625 10.6875 C4.58117187 11.49123047 4.53734375 12.29496094 4.4921875 13.12304688 C4.23582402 17.47766541 3.81841903 21.70676797 3 26 C1.23336305 22.86588256 0.51629011 20.04083363 -0.0625 16.5 C-0.68673389 12.6606366 -0.68673389 12.6606366 -1.6171875 8.890625 C-2.25888603 5.72142003 -0.98260058 3.00560176 0 0 Z " fill="#DFD738" transform="translate(210,263)"/>
<path d="M0 0 C2.40033503 0.01837366 4.80028518 0.02050836 7.20068359 0.02026367 C8.73844733 0.02517611 10.27620847 0.03100323 11.81396484 0.0378418 C12.5255072 0.03895462 13.23704956 0.04006744 13.97015381 0.04121399 C17.64842478 0.0761713 21.06430679 0.33482281 24.64208984 1.20581055 C24.64208984 1.53581055 24.64208984 1.86581055 24.64208984 2.20581055 C23.45131836 2.2308667 22.26054687 2.25592285 21.03369141 2.28173828 C16.61301027 2.37595702 12.19248094 2.47614243 7.77197266 2.578125 C5.85924838 2.62141912 3.94648684 2.66309811 2.03369141 2.703125 C-0.71674834 2.76096135 -3.46700144 2.82461731 -6.21728516 2.8894043 C-7.07159119 2.90611679 -7.92589722 2.92282928 -8.80609131 2.94004822 C-9.60661926 2.95999344 -10.40714722 2.97993866 -11.23193359 3.00048828 C-11.93364685 3.01603256 -12.63536011 3.03157684 -13.3583374 3.04759216 C-15.45164395 3.21322734 -17.33071989 3.67276207 -19.35791016 4.20581055 C-20.77325794 4.27037933 -22.19128705 4.29192093 -23.60791016 4.26831055 C-25.46416016 4.23737305 -25.46416016 4.23737305 -27.35791016 4.20581055 C-19.3676387 -1.12103709 -9.23076708 -0.07322986 0 0 Z " fill="#C7BE22" transform="translate(212.35791015625,104.794189453125)"/>
<path d="M0 0 C0.66 0 1.32 0 2 0 C1.39421398 3.3924017 0.62621177 5.7020647 -2 8 C-6.3917052 8.7334416 -10.24934314 8.21252187 -14.51489258 7.00488281 C-19.47497502 5.75000139 -24.31055843 5.64983699 -29.40625 5.5859375 C-30.3715564 5.56657135 -31.33686279 5.5472052 -32.3314209 5.5272522 C-35.38752657 5.46789982 -38.44367082 5.42124962 -41.5 5.375 C-43.58334895 5.33677936 -45.66668278 5.2977253 -47.75 5.2578125 C-52.8332093 5.16223511 -57.91649247 5.07804187 -63 5 C-63 4.67 -63 4.34 -63 4 C-45.51 4 -28.02 4 -10 4 C-10 4.66 -10 5.32 -10 6 C-7.36 6 -4.72 6 -2 6 C-1.34 4.02 -0.68 2.04 0 0 Z " fill="#AEA715" transform="translate(231,205)"/>
<path d="M0 0 C0.97591583 3.38317487 0.85856655 5.5657338 0 9 C0.66 9.33 1.32 9.66 2 10 C0.83348574 15.92863717 -0.75519358 21.38798394 -3 27 C-3.33 27 -3.66 27 -4 27 C-4 25.02 -4 23.04 -4 21 C-4.99 21.33 -5.98 21.66 -7 22 C-6.5875 20.783125 -6.175 19.56625 -5.75 18.3125 C-3.72341064 12.24242851 -1.86391367 6.12158449 0 0 Z " fill="#252101" transform="translate(244,245)"/>
<path d="M0 0 C0.66 0 1.32 0 2 0 C4.56136221 2.56136221 4.29666857 3.66561331 4.4140625 7.2265625 C4.45273438 8.2578125 4.49140625 9.2890625 4.53125 10.3515625 C4.5621875 11.43179687 4.593125 12.51203125 4.625 13.625 C4.66367188 14.71296875 4.70234375 15.8009375 4.7421875 16.921875 C4.83666247 19.61441165 4.92222431 22.30693757 5 25 C3.68 25 2.36 25 1 25 C-0.00005304 21.99984088 -0.11575585 20.02576244 -0.09765625 16.89453125 C-0.09443359 15.91162109 -0.09121094 14.92871094 -0.08789062 13.91601562 C-0.07951172 12.89185547 -0.07113281 11.86769531 -0.0625 10.8125 C-0.05798828 9.77673828 -0.05347656 8.74097656 -0.04882812 7.67382812 C-0.0370401 5.11582734 -0.02058515 2.55794267 0 0 Z " fill="#E4D622" transform="translate(210,351)"/>
<path d="M0 0 C2.71435596 0.93305986 3.78043163 1.62673377 5.25 4.125 C5.4975 4.74375 5.745 5.3625 6 6 C6.66 6 7.32 6 8 6 C8 6.66 8 7.32 8 8 C3.38 8 -1.24 8 -6 8 C-6.33 8.99 -6.66 9.98 -7 11 C-7.66 11 -8.32 11 -9 11 C-7.60466338 6.56029258 -5.43871468 4.09484321 -2 1 C-1.34 0.67 -0.68 0.34 0 0 Z " fill="#252104" transform="translate(212,309)"/>
<path d="M0 0 C0.66 0 1.32 0 2 0 C2 1.98 2 3.96 2 6 C2.99 5.67 3.98 5.34 5 5 C4.36843005 10.05255964 2.86540627 14.29593201 1 19 C0.01 18.01 -0.98 17.02 -2 16 C-2.99 16.99 -3.98 17.98 -5 19 C-4.54636829 17.41531323 -4.08688548 15.83230076 -3.625 14.25 C-3.36976563 13.36828125 -3.11453125 12.4865625 -2.8515625 11.578125 C-2 9 -2 9 -0.90625 6.84375 C0.25580982 4.47955933 0.14435241 2.59834347 0 0 Z " fill="#292203" transform="translate(254,215)"/>
<path d="M0 0 C0.80308594 -0.03738281 1.60617188 -0.07476562 2.43359375 -0.11328125 C6.80675265 -0.17812216 8.56624782 -0.05894001 12.1328125 2.7109375 C14.125 5.375 14.125 5.375 15.125 8.375 C16.115 8.375 17.105 8.375 18.125 8.375 C18.125 9.365 18.125 10.355 18.125 11.375 C16.805 11.375 15.485 11.375 14.125 11.375 C13.83625 10.735625 13.5475 10.09625 13.25 9.4375 C12.29676549 7.22293921 12.29676549 7.22293921 10.125 6.375 C10.125 5.385 10.125 4.395 10.125 3.375 C3.195 3.045 -3.735 2.715 -10.875 2.375 C-10.875 4.025 -10.875 5.675 -10.875 7.375 C-11.535 6.385 -12.195 5.395 -12.875 4.375 C-12.545 3.385 -12.215 2.395 -11.875 1.375 C-7.88095224 0.04365075 -4.18404364 0.07317087 0 0 Z " fill="#D1C72D" transform="translate(177.875,212.625)"/>
<path d="M0 0 C0.99 0 1.98 0 3 0 C3.268125 0.598125 3.53625 1.19625 3.8125 1.8125 C4.83517284 4.03394582 4.83517284 4.03394582 6.5625 5.25 C8.96939903 8.18013795 8.76310582 11.26891671 9 15 C8.67 15.66 8.34 16.32 8 17 C7.34 17 6.68 17 6 17 C2.91099799 11.33492989 0.42335385 6.49142565 0 0 Z " fill="#191601" transform="translate(167,230)"/>
<path d="M0 0 C0.66 0.99 1.32 1.98 2 3 C2.680625 2.2575 2.680625 2.2575 3.375 1.5 C5 0 5 0 7 0 C7.64165788 5.26159459 6.20577001 7.68592849 3.09375 11.6796875 C2.7328125 12.11539062 2.371875 12.55109375 2 13 C1.67 11.68 1.34 10.36 1 9 C0.01 9 -0.98 9 -2 9 C-3.6875 7 -3.6875 7 -5 5 C-4.01 5 -3.02 5 -2 5 C-2 4.34 -2 3.68 -2 3 C-1.34 3 -0.68 3 0 3 C0 2.01 0 1.02 0 0 Z " fill="#201E18" transform="translate(267,372)"/>
<path d="M0 0 C0.75732422 0.00644531 1.51464844 0.01289063 2.29492188 0.01953125 C3.08060547 0.03628906 3.86628906 0.05304688 4.67578125 0.0703125 C5.47306641 0.07933594 6.27035156 0.08835938 7.09179688 0.09765625 C9.05742025 0.12119665 11.022889 0.15706703 12.98828125 0.1953125 C13.61328125 2.5703125 13.61328125 2.5703125 13.98828125 5.1953125 C13.32828125 5.8553125 12.66828125 6.5153125 11.98828125 7.1953125 C11.98828125 5.5453125 11.98828125 3.8953125 11.98828125 2.1953125 C9.5504074 2.3362474 7.11310272 2.48285792 4.67578125 2.6328125 C3.6403418 2.69178711 3.6403418 2.69178711 2.58398438 2.75195312 C-0.4833341 2.94458665 -3.08140027 3.21853967 -6.01171875 4.1953125 C-6.34171875 7.1653125 -6.67171875 10.1353125 -7.01171875 13.1953125 C-7.67171875 13.1953125 -8.33171875 13.1953125 -9.01171875 13.1953125 C-8.75672034 11.40132366 -8.48218061 9.61010375 -8.19921875 7.8203125 C-8.04839844 6.82257813 -7.89757812 5.82484375 -7.7421875 4.796875 C-6.54709079 0.54054127 -4.02837689 -0.0605771 0 0 Z " fill="#E2D837" transform="translate(241.01171875,214.8046875)"/>
<path d="M0 0 C2.49938654 3.74907981 3.98138052 7.6332968 5.625 11.8125 C5.94984375 12.60720703 6.2746875 13.40191406 6.609375 14.22070312 C8.3338567 18.60074172 9.57395093 22.2097172 9 27 C7.5 28.875 7.5 28.875 6 30 C6 28.68 6 27.36 6 26 C6.66 26 7.32 26 8 26 C7.6390625 25.15695312 7.278125 24.31390625 6.90625 23.4453125 C6.4421875 22.34960938 5.978125 21.25390625 5.5 20.125 C4.80390625 18.48917969 4.80390625 18.48917969 4.09375 16.8203125 C3 14 3 14 3 12 C2.01 12.33 1.02 12.66 0 13 C0 8.71 0 4.42 0 0 Z " fill="#DDD41E" transform="translate(184,274)"/>
<path d="M0 0 C1.21365463 4.019693 0.47082855 6.05198652 -1 10 C-2.1235745 13.63509398 -2.99595151 16.96529869 -3.4375 20.75 C-4.02825782 24.1632674 -4.45214513 24.87678761 -7 27 C-7.33 27.99 -7.66 28.98 -8 30 C-8.66 30 -9.32 30 -10 30 C-7.98086853 23.0449018 -5.73400143 16.19969087 -3.3125 9.375 C-2.83200195 8.01181641 -2.83200195 8.01181641 -2.34179688 6.62109375 C-1.56326686 4.41332207 -0.78264756 2.20631463 0 0 Z " fill="#E4DA21" transform="translate(251,241)"/>
<path d="M0 0 C0.66 0 1.32 0 2 0 C2 12.54 2 25.08 2 38 C0.68 38 -0.64 38 -2 38 C-2 34.37 -2 30.74 -2 27 C-1.67 27 -1.34 27 -1 27 C-1 29.64 -1 32.28 -1 35 C-0.34 35 0.32 35 1 35 C0.505 17.675 0.505 17.675 0 0 Z " fill="#F2E726" transform="translate(201,339)"/>
<path d="M0 0 C0.99 0 1.98 0 3 0 C3.2475 0.804375 3.495 1.60875 3.75 2.4375 C5.02340675 6.06670923 6.55183945 9.47633227 8.1953125 12.94921875 C9 15 9 15 9 18 C9.66 18 10.32 18 11 18 C11.53154742 19.60064843 12.04988353 21.20568874 12.5625 22.8125 C12.85253906 23.70582031 13.14257812 24.59914063 13.44140625 25.51953125 C14 28 14 28 13 31 C7.74422421 21.09488408 3.86162332 10.51219682 0 0 Z " fill="#E2D82A" transform="translate(174,236)"/>
<path d="M0 0 C2.99217594 5.38591669 3.12191768 10.39866193 3.09765625 16.48828125 C3.0962413 17.19147995 3.09482635 17.89467865 3.09336853 18.6191864 C3.08780109 20.85033544 3.07525475 23.08138164 3.0625 25.3125 C3.05748079 26.83137875 3.05291862 28.35025909 3.04882812 29.86914062 C3.03784236 33.57946012 3.02060034 37.28972001 3 41 C2.67 41 2.34 41 2 41 C1.97494385 40.18732666 1.9498877 39.37465332 1.92407227 38.53735352 C1.80850882 34.87889248 1.68560416 31.22071472 1.5625 27.5625 C1.52318359 26.28310547 1.48386719 25.00371094 1.44335938 23.68554688 C1.40146484 22.47060547 1.35957031 21.25566406 1.31640625 20.00390625 C1.27974854 18.87799072 1.24309082 17.7520752 1.20532227 16.59204102 C1.28781955 14.07146559 1.28781955 14.07146559 0 13 C-0.07258946 10.81360547 -0.08373783 8.62499611 -0.0625 6.4375 C-0.05347656 5.23996094 -0.04445313 4.04242188 -0.03515625 2.80859375 C-0.02355469 1.88175781 -0.01195312 0.95492187 0 0 Z " fill="#D1C71D" transform="translate(315,186)"/>
<path d="M0 0 C2.68777802 -0.0544207 5.37443212 -0.09387266 8.0625 -0.125 C8.81466797 -0.14175781 9.56683594 -0.15851563 10.34179688 -0.17578125 C15.29205371 -0.21864062 19.3339203 0.30000153 24 2 C24.66 2.66 25.32 3.32 26 4 C24.865625 3.855625 23.73125 3.71125 22.5625 3.5625 C15.06885237 2.71916345 7.52730799 2.4061808 0 2 C0 1.34 0 0.68 0 0 Z " fill="#D8CF2D" transform="translate(195,213)"/>
<path d="M0 0 C1.32 0.99 2.64 1.98 4 3 C4.390625 6.13671875 4.390625 6.13671875 4.25 9.6875 C4.21390625 10.86699219 4.1778125 12.04648437 4.140625 13.26171875 C4.09421875 14.16535156 4.0478125 15.06898438 4 16 C2.35 15.67 0.7 15.34 -1 15 C-1 14.01 -1 13.02 -1 12 C-0.34 12 0.32 12 1 12 C0.67 8.04 0.34 4.08 0 0 Z " fill="#D2CA19" transform="translate(224,307)"/>
<path d="M0 0 C2 2 2 2 2 5 C2.66 5 3.32 5 4 5 C4 5.66 4 6.32 4 7 C4.66 7 5.32 7 6 7 C6.18175781 7.56847656 6.36351563 8.13695312 6.55078125 8.72265625 C7.79150782 12.53391377 9.05980279 16.23757098 10.75 19.875 C12 23 12 23 11 26 C10.34 24.02 9.68 22.04 9 20 C8.34 20 7.68 20 7 20 C6.74605469 19.27554687 6.49210937 18.55109375 6.23046875 17.8046875 C4.72980833 13.58934923 3.25334841 9.50669683 1.25 5.5 C0 3 0 3 0 0 Z " fill="#E8DB1F" transform="translate(113,253)"/>
<path d="M0 0 C0.66 0.33 1.32 0.66 2 1 C1.04882866 2.1725131 0.08882991 3.33787015 -0.875 4.5 C-1.67550781 5.47453125 -1.67550781 5.47453125 -2.4921875 6.46875 C-2.98976562 6.9740625 -3.48734375 7.479375 -4 8 C-4.66 8 -5.32 8 -6 8 C-6 8.66 -6 9.32 -6 10 C-7.75 11.6875 -7.75 11.6875 -10 13 C-12.25 12.6875 -12.25 12.6875 -14 12 C-13.01 11.67 -12.02 11.34 -11 11 C-10.70351562 10.39671875 -10.40703125 9.7934375 -10.1015625 9.171875 C-8.68076474 6.3705858 -6.88366259 5.11357792 -4.375 3.25 C-3.55773437 2.63640625 -2.74046875 2.0228125 -1.8984375 1.390625 C-0.95871094 0.70226562 -0.95871094 0.70226562 0 0 Z " fill="#DBD01A" transform="translate(151,123)"/>
<path d="M0 0 C1.74216797 0.04060547 1.74216797 0.04060547 3.51953125 0.08203125 C4.39996094 0.11683594 5.28039062 0.15164063 6.1875 0.1875 C6.5175 0.8475 6.8475 1.5075 7.1875 2.1875 C-0.7325 2.6825 -0.7325 2.6825 -8.8125 3.1875 C-9.4725 5.8275 -10.1325 8.4675 -10.8125 11.1875 C-11.4725 10.8575 -12.1325 10.5275 -12.8125 10.1875 C-12.625 6.875 -12.625 6.875 -11.8125 3.1875 C-7.94287464 0.05765596 -4.87691812 -0.1477854 0 0 Z " fill="#CFC727" transform="translate(210.8125,302.8125)"/>
<path d="M0 0 C0 0.66 0 1.32 0 2 C0.66 2 1.32 2 2 2 C1.67 2.66 1.34 3.32 1 4 C-6.26 3.67 -13.52 3.34 -21 3 C-21 2.34 -21 1.68 -21 1 C-13.97252688 0.33411422 -7.05985273 -0.11766421 0 0 Z " fill="#CCC315" transform="translate(258,209)"/>
<path d="M0 0 C-3.51187196 2.40814077 -5.72656908 3.36629408 -10 3 C-10.33 4.65 -10.66 6.3 -11 8 C-11.66 7.67 -12.32 7.34 -13 7 C-14.32 7 -15.64 7 -17 7 C-18.34164079 6.7018576 -19.67851173 6.37756808 -21 6 C-4.4546332 -1.71332046 -4.4546332 -1.71332046 0 0 Z " fill="#DCD01A" transform="translate(185,110)"/>
<path d="M0 0 C0.66 0.33 1.32 0.66 2 1 C1.73445313 1.95519531 1.46890625 2.91039062 1.1953125 3.89453125 C-0.90567455 11.55082196 -2.75924543 19.14732965 -4 27 C-4.33 27 -4.66 27 -5 27 C-4.67 21.39 -4.34 15.78 -4 10 C-3.34 10 -2.68 10 -2 10 C-2.04125 9.0925 -2.0825 8.185 -2.125 7.25 C-2.00468444 4.1217954 -1.6085292 2.61385994 0 0 Z " fill="#D6CD1D" transform="translate(277,317)"/>
<path d="M0 0 C0.33 0.66 0.66 1.32 1 2 C1.66 2 2.32 2 3 2 C3 2.66 3 3.32 3 4 C3.66 4 4.32 4 5 4 C6.60355101 7.50776784 7.22036864 10.14354879 7 14 C7.66 14 8.32 14 9 14 C8.67 15.65 8.34 17.3 8 19 C6 17 6 17 5.875 14.375 C5.91625 13.59125 5.9575 12.8075 6 12 C5.34 12 4.68 12 4 12 C3.32645501 10.56570999 2.66140299 9.12742943 2 7.6875 C1.62875 6.88699219 1.2575 6.08648437 0.875 5.26171875 C0 3 0 3 0 0 Z " fill="#D1C619" transform="translate(142,311)"/>
<path d="M0 0 C0.99 0 1.98 0 3 0 C4.26237731 2.52475462 4.09856404 4.31200466 4.0625 7.125 C4.05347656 8.03507812 4.04445312 8.94515625 4.03515625 9.8828125 C4.02355469 10.58148438 4.01195312 11.28015625 4 12 C2.68 11.67 1.36 11.34 0 11 C-1.125 3.375 -1.125 3.375 0 0 Z " fill="#FAEC09" transform="translate(221,307)"/>
<path d="M0 0 C-0.08378906 0.67546875 -0.16757813 1.3509375 -0.25390625 2.046875 C-0.35574219 2.93890625 -0.45757812 3.8309375 -0.5625 4.75 C-0.66691406 5.63171875 -0.77132812 6.5134375 -0.87890625 7.421875 C-0.99456676 9.88432451 -0.73638695 11.66538064 0 14 C-2.63049736 11.6200262 -4.47108462 9.2107223 -6 6 C-5.6875 3.1875 -5.6875 3.1875 -5 1 C-1.125 0 -1.125 0 0 0 Z " fill="#323130" transform="translate(136,304)"/>
<path d="M0 0 C0.66 0 1.32 0 2 0 C2.125 5.75 2.125 5.75 1 8 C0.34 8 -0.32 8 -1 8 C-1.33 9.65 -1.66 11.3 -2 13 C-2.66 13 -3.32 13 -4 13 C-4.5497272 7.36529617 -2.95047835 4.61012242 0 0 Z " fill="#100D00" transform="translate(238,266)"/>
<path d="M0 0 C0.66 0 1.32 0 2 0 C-0.07214552 7.61471362 -2.89462416 14.75412304 -6 22 C-6.67176756 23.66461724 -7.34015441 25.33062107 -8 27 C-9.22944714 23.51788842 -8.79069052 21.77304514 -7.3125 18.4375 C-5.31118177 13.76080843 -3.54015091 9.04090135 -1.83203125 4.25 C-1 2 -1 2 0 0 Z " fill="#D8CF2F" transform="translate(241,251)"/>
<path d="M0 0 C0.99 0 1.98 0 3 0 C3.33 0.99 3.66 1.98 4 3 C3.01 3 2.02 3 1 3 C1 13.89 1 24.78 1 36 C0.67 36 0.34 36 0 36 C0 24.12 0 12.24 0 0 Z " fill="#FAEC26" transform="translate(220,333)"/>
<path d="M0 0 C3.13362724 1.56681362 3.34268902 4.21608254 4.5 7.4375 C6.07269101 12.14434157 6.07269101 12.14434157 9 16 C9.1953125 18.3828125 9.1953125 18.3828125 9.125 21.125 C9.09792969 22.49011719 9.09792969 22.49011719 9.0703125 23.8828125 C9.03550781 24.93082031 9.03550781 24.93082031 9 26 C8.67 26 8.34 26 8 26 C7.84144531 25.44054687 7.68289062 24.88109375 7.51953125 24.3046875 C5.60796823 17.73566982 3.35268057 11.32290891 0.98828125 4.90625 C0 2 0 2 0 0 Z " fill="#D4CB30" transform="translate(188,268)"/>
<path d="M0 0 C0.66 0 1.32 0 2 0 C0.38151704 5.54207803 -1.30404609 11.06321529 -3.0625 16.5625 C-3.38347656 17.57441406 -3.70445312 18.58632812 -4.03515625 19.62890625 C-5 22 -5 22 -7 23 C-6.59156125 17.38396718 -5.4069373 13.19587389 -2.98828125 8.12109375 C-1.75883135 5.48239298 -0.85534582 2.77987391 0 0 Z " fill="#E3D92E" transform="translate(251,222)"/>
<path d="M0 0 C2.31 0.66 4.62 1.32 7 2 C7 4.64 7 7.28 7 10 C3.21550448 8.73850149 2.86823143 7.41155305 1 4 C0.34 3.01 -0.32 2.02 -1 1 C-0.67 0.67 -0.34 0.34 0 0 Z " fill="#2C2405" transform="translate(188,212)"/>
<path d="M0 0 C1.32 0 2.64 0 4 0 C4 3.63 4 7.26 4 11 C3.34 11 2.68 11 2 11 C1.67 8.69 1.34 6.38 1 4 C0.67 6.64 0.34 9.28 0 12 C-0.33 12 -0.66 12 -1 12 C-1.02712066 10.56260487 -1.04645067 9.12506137 -1.0625 7.6875 C-1.07410156 6.88699219 -1.08570313 6.08648437 -1.09765625 5.26171875 C-1 3 -1 3 0 0 Z " fill="#E5DA29" transform="translate(211,335)"/>
<path d="M0 0 C0.33 0.66 0.66 1.32 1 2 C0.0625 4.625 0.0625 4.625 -1 7 C-1.66 7 -2.32 7 -3 7 C-3.2475 7.639375 -3.495 8.27875 -3.75 8.9375 C-5 11 -5 11 -7.125 11.75 C-8.053125 11.87375 -8.053125 11.87375 -9 12 C-7.55575365 8.76138697 -5.74227753 6.38030837 -3.375 3.75 C-2.74335938 3.04359375 -2.11171875 2.3371875 -1.4609375 1.609375 C-0.97882813 1.07828125 -0.49671875 0.5471875 0 0 Z " fill="#D7CD18" transform="translate(136,136)"/>
<path d="M0 0 C1.67588141 2.51382212 2.94030311 4.82947288 4.1875 7.5625 C4.55230469 8.34753906 4.91710937 9.13257813 5.29296875 9.94140625 C5.52628906 10.62074219 5.75960937 11.30007812 6 12 C5.67 12.66 5.34 13.32 5 14 C4.34 13.01 3.68 12.02 3 11 C2.34 11 1.68 11 1 11 C0.67 11.66 0.34 12.32 0 13 C-0.86072203 9.55711188 -0.9831895 7.38654161 0 4 C0 2.68 0 1.36 0 0 Z " fill="#312D03" transform="translate(175,239)"/>
<path d="M0 0 C0.33 0 0.66 0 1 0 C0.85845864 2.56280208 0.71191438 5.12515485 0.5625 7.6875 C0.50352539 8.7693457 0.50352539 8.7693457 0.44335938 9.87304688 C0.21814322 13.66707282 -0.12839305 17.28651492 -1 21 C-1.33 21 -1.66 21 -2 21 C-2.05420701 18.43721301 -2.09377007 15.87558517 -2.125 13.3125 C-2.15013672 12.2306543 -2.15013672 12.2306543 -2.17578125 11.12695312 C-2.21391569 6.95123219 -1.8789919 3.7505862 0 0 Z " fill="#DDD325" transform="translate(271,344)"/>
<path d="M0 0 C1.04005702 3.38018531 1.08004482 6.4780279 1 10 C0.34 10 -0.32 10 -1 10 C-0.67 12.31 -0.34 14.62 0 17 C-1.5 15.9375 -1.5 15.9375 -3 14 C-3.64244174 8.43217161 -2.39307678 4.8858651 0 0 Z " fill="#DCD01B" transform="translate(235,285)"/>
<path d="M0 0 C4.62 0 9.24 0 14 0 C13.01 0.495 13.01 0.495 12 1 C11.67 1.99 11.34 2.98 11 4 C7.37 3.34 3.74 2.68 0 2 C0 1.34 0 0.68 0 0 Z " fill="#0A0600" transform="translate(218,213)"/>
<path d="M0 0 C0.93423645 3.01031744 1.04449911 3.86650268 0 7 C-0.66 7 -1.32 7 -2 7 C-2.33 8.98 -2.66 10.96 -3 13 C-3.66 13 -4.32 13 -5 13 C-5.33 14.32 -5.66 15.64 -6 17 C-6.33 16.34 -6.66 15.68 -7 15 C-6.07421875 12.28515625 -6.07421875 12.28515625 -4.6875 9.0625 C-4.23761719 8.00160156 -3.78773437 6.94070312 -3.32421875 5.84765625 C-2 3 -2 3 0 0 Z " fill="#D9CE1B" transform="translate(122,154)"/>
<path d="M0 0 C0.66 0.33 1.32 0.66 2 1 C-0.64 6.28 -3.28 11.56 -6 17 C-6.33 17 -6.66 17 -7 17 C-7.25 11.375 -7.25 11.375 -5 8 C-4.34 8 -3.68 8 -3 8 C-2.87625 7.4225 -2.7525 6.845 -2.625 6.25 C-1.99351176 3.97664233 -1.11141809 2.0746471 0 0 Z " fill="#E1D420" transform="translate(286,300)"/>
<path d="M0 0 C3.2542015 2.83430453 4.5206753 4.68607774 5 9 C4.01 8.01 3.02 7.02 2 6 C1.34 7.32 0.68 8.64 0 10 C-1.49821059 6.62902617 -2 4.79557881 -2 1 C-1.34 0.67 -0.68 0.34 0 0 Z " fill="#1F1A01" transform="translate(178,249)"/>
<path d="M0 0 C6.66500865 -0.59244521 11.86952975 1.51677155 18 4 C14.25819854 5.36476334 11.64789123 4.60537534 7.875 3.5625 C3.98733953 2.41558601 3.98733953 2.41558601 0 2 C0 1.34 0 0.68 0 0 Z " fill="#D9D121" transform="translate(234,107)"/>
<path d="M0 0 C0.66 0 1.32 0 2 0 C2 0.99 2 1.98 2 3 C3.32 3.33 4.64 3.66 6 4 C6.66 6.31 7.32 8.62 8 11 C7.34 11.66 6.68 12.32 6 13 C4.99759911 11.02204824 3.99813957 9.04260558 3 7.0625 C2.1646875 5.40927734 2.1646875 5.40927734 1.3125 3.72265625 C0 1 0 1 0 0 Z " fill="#585658" transform="translate(110,271)"/>
<path d="M0 0 C0.66 0.99 1.32 1.98 2 3 C2.66 2.67 3.32 2.34 4 2 C2.828125 8.0546875 2.828125 8.0546875 2 10 C0.02 10.99 0.02 10.99 -2 12 C-1.34 8.04 -0.68 4.08 0 0 Z " fill="#594F0A" transform="translate(230,218)"/>
<path d="M0 0 C1.13199353 0.9080162 2.25532363 1.82683826 3.375 2.75 C4.00148438 3.26046875 4.62796875 3.7709375 5.2734375 4.296875 C7.08312318 6.08199481 8.00117455 7.67949644 9 10 C6.03 9.505 6.03 9.505 3 9 C3 7.35 3 5.7 3 4 C2.01 4 1.02 4 0 4 C0 2.68 0 1.36 0 0 Z " fill="#D9CF18" transform="translate(285,135)"/>
<path d="M0 0 C0.99 0 1.98 0 3 0 C2.33501617 4.38889325 0.81242323 7.9811485 -1 12 C-1.33 12 -1.66 12 -2 12 C-2 9.03 -2 6.06 -2 3 C-1.34 3 -0.68 3 0 3 C0 2.01 0 1.02 0 0 Z " fill="#E9E023" transform="translate(229,278)"/>
<path d="M0 0 C2.0625 0.4375 2.0625 0.4375 4 1 C3.01 1.495 3.01 1.495 2 2 C1.53101037 4.8159849 1.53101037 4.8159849 1.375 8.0625 C1.30023438 9.16722656 1.22546875 10.27195312 1.1484375 11.41015625 C1.09945312 12.26480469 1.05046875 13.11945313 1 14 C0.34 13.67 -0.32 13.34 -1 13 C-1.02686553 11.02090602 -1.04633375 9.04171029 -1.0625 7.0625 C-1.07410156 5.96035156 -1.08570313 4.85820312 -1.09765625 3.72265625 C-1 1 -1 1 0 0 Z " fill="#DFD54B" transform="translate(222,261)"/>
<path d="M0 0 C3.96 0 7.92 0 12 0 C11.67 0.66 11.34 1.32 11 2 C9.07421875 2.37890625 9.07421875 2.37890625 6.6875 2.5625 C3.68223372 2.80590173 0.9088107 3.1945856 -2 4 C-1.34 2.68 -0.68 1.36 0 0 Z " fill="#0F0C00" transform="translate(237,212)"/>
<path d="M0 0 C2 1 2 1 3.125 4.125 C3.97755199 7.90058738 4.15729024 11.14638912 4 15 C1.73625389 12.73625389 1.51648574 11.68987631 0.875 8.625 C0.70742187 7.85414063 0.53984375 7.08328125 0.3671875 6.2890625 C0 4 0 4 0 0 Z " fill="#BFB61A" transform="translate(224,336)"/>
<path d="M0 0 C1.37478516 0.01740234 1.37478516 0.01740234 2.77734375 0.03515625 C3.69644531 0.04417969 4.61554688 0.05320313 5.5625 0.0625 C6.27277344 0.07410156 6.98304688 0.08570313 7.71484375 0.09765625 C7.71484375 0.42765625 7.71484375 0.75765625 7.71484375 1.09765625 C6.06484375 1.42765625 4.41484375 1.75765625 2.71484375 2.09765625 C2.71484375 2.42765625 2.71484375 2.75765625 2.71484375 3.09765625 C-2.23515625 3.09765625 -7.18515625 3.09765625 -12.28515625 3.09765625 C-12.28515625 2.76765625 -12.28515625 2.43765625 -12.28515625 2.09765625 C-11.32802734 2.00677734 -11.32802734 2.00677734 -10.3515625 1.9140625 C-9.11212891 1.78837891 -9.11212891 1.78837891 -7.84765625 1.66015625 C-7.02394531 1.57894531 -6.20023438 1.49773437 -5.3515625 1.4140625 C-2.82680995 1.02747468 -2.62280976 0.11208589 0 0 Z " fill="#272400" transform="translate(251.28515625,211.90234375)"/>
<path d="M0 0 C1.32 0.33 2.64 0.66 4 1 C2.68 1.33 1.36 1.66 0 2 C0.165 2.99 0.33 3.98 0.5 5 C1.08474517 9.02732942 1.07132024 12.93474623 1 17 C0.67 17 0.34 17 0 17 C-1.66517133 10.63392191 -2.42650927 6.20107925 0 0 Z " fill="#CBC42B" transform="translate(210,263)"/>
<path d="M0 0 C4.67105792 1.55701931 8.08705685 4.08447373 12 7 C9 8 9 8 7 8 C6.67 6.68 6.34 5.36 6 4 C4.35 4 2.7 4 1 4 C0.67 2.68 0.34 1.36 0 0 Z " fill="#DFD61C" transform="translate(261,117)"/>
<path d="M0 0 C1.5 1.0625 1.5 1.0625 3 3 C3.1875 6.6875 3.1875 6.6875 3 10 C2.01 10.495 2.01 10.495 1 11 C1 9.35 1 7.7 1 6 C0.34 6 -0.32 6 -1 6 C-1.042721 4.33388095 -1.04063832 2.66617115 -1 1 C-0.67 0.67 -0.34 0.34 0 0 Z " fill="#090700" transform="translate(193,288)"/>
<path d="M0 0 C1.1484375 1.671875 1.1484375 1.671875 2 4 C1.1015625 6.578125 1.1015625 6.578125 -0.375 9.25 C-0.85710937 10.14203125 -1.33921875 11.0340625 -1.8359375 11.953125 C-2.22007813 12.62859375 -2.60421875 13.3040625 -3 14 C-4.37095624 10.30962722 -3.60010967 8.29116165 -2.0625 4.75 C-1.68222656 3.85796875 -1.30195312 2.9659375 -0.91015625 2.046875 C-0.60980469 1.37140625 -0.30945313 0.6959375 0 0 Z " fill="#E3DA1E" transform="translate(114,171)"/>
<path d="M0 0 C0.99 0.66 1.98 1.32 3 2 C3 2.66 3 3.32 3 4 C3.66 4 4.32 4 5 4 C5 4.66 5 5.32 5 6 C-1.15234375 5.4140625 -1.15234375 5.4140625 -3 5 C-3.33 4.34 -3.66 3.68 -4 3 C-2.68 2.67 -1.36 2.34 0 2 C0 1.34 0 0.68 0 0 Z " fill="#302C22" transform="translate(215,311)"/>
<path d="M0 0 C0.66 0 1.32 0 2 0 C2 3.96 2 7.92 2 12 C1.34 11.67 0.68 11.34 0 11 C-1.27368421 3.82105263 -1.27368421 3.82105263 0 0 Z " fill="#FBEF0C" transform="translate(211,267)"/>
<path d="M0 0 C2.475 0.495 2.475 0.495 5 1 C4.67 2.32 4.34 3.64 4 5 C5.65 5 7.3 5 9 5 C9 5.33 9 5.66 9 6 C6.1875 6.25 6.1875 6.25 3 6 C1.125 4.125 1.125 4.125 0 2 C0 1.34 0 0.68 0 0 Z " fill="#E8DC1B" transform="translate(159,370)"/>
<path d="M0 0 C3.48331435 3.01887244 4.79157144 5.56909529 6 10 C3.5625 8.9375 3.5625 8.9375 1 7 C0.1875 3.3125 0.1875 3.3125 0 0 Z " fill="#2D2301" transform="translate(136,303)"/>
<path d="M0 0 C0.33 0 0.66 0 1 0 C1.5497272 5.63470383 -0.04952165 8.38987758 -3 13 C-3.93045933 10.44855176 -4.08564091 9.25993522 -3.22265625 6.640625 C-2.83980469 5.85171875 -2.45695313 5.0628125 -2.0625 4.25 C-1.68222656 3.45078125 -1.30195313 2.6515625 -0.91015625 1.828125 C-0.60980469 1.22484375 -0.30945313 0.6215625 0 0 Z " fill="#DBCF20" transform="translate(240,272)"/>
<path d="M0 0 C0.66 0.33 1.32 0.66 2 1 C2 2.65 2 4.3 2 6 C0.35 6.66 -1.3 7.32 -3 8 C-2.45276317 4.62537285 -1.9451 2.91765 0 0 Z " fill="#0B0500" transform="translate(252,230)"/>
<path d="M0 0 C0 2.31 0 4.62 0 7 C-0.99 6.34 -1.98 5.68 -3 5 C-3 4.34 -3 3.68 -3 3 C-4.65 3 -6.3 3 -8 3 C-7.67 2.34 -7.34 1.68 -7 1 C-4.61370553 0.38812962 -2.46459429 0 0 0 Z " fill="#251D09" transform="translate(226,330)"/>
<path d="M0 0 C0.66 0 1.32 0 2 0 C3.125 5.75 3.125 5.75 2 8 C1.34 8 0.68 8 0 8 C-0.38063221 5.6739143 -0.71269945 3.33944736 -1 1 C-0.67 0.67 -0.34 0.34 0 0 Z " fill="#0B0700" transform="translate(173,239)"/>
<path d="M0 0 C0.99 0 1.98 0 3 0 C3.53154742 1.60064843 4.04988353 3.20568874 4.5625 4.8125 C4.85253906 5.70582031 5.14257812 6.59914062 5.44140625 7.51953125 C6 10 6 10 5 13 C4.16209211 11.21046815 3.32980604 9.41830305 2.5 7.625 C1.80390625 6.12839844 1.80390625 6.12839844 1.09375 4.6015625 C0 2 0 2 0 0 Z " fill="#E4DE2D" transform="translate(168,222)"/>
<path d="M0 0 C0 0.66 0 1.32 0 2 C-1.98 2.66 -3.96 3.32 -6 4 C-6 4.66 -6 5.32 -6 6 C-7.65 6 -9.3 6 -11 6 C-7.87921364 2.5324596 -4.85451611 0 0 0 Z " fill="#D9D020" transform="translate(164,117)"/>
<path d="M0 0 C0 0.66 0 1.32 0 2 C-3.9813783 3.3271261 -7.85045227 3.06915913 -12 3 C-7.86112344 0.24074896 -4.92824278 -0.13689563 0 0 Z " fill="#CDC11E" transform="translate(197,106)"/>
<path d="M0 0 C0.66 0.33 1.32 0.66 2 1 C1.01 3.97 0.02 6.94 -1 10 C-1.66 9.67 -2.32 9.34 -3 9 C-2.25 2.25 -2.25 2.25 0 0 Z " fill="#CDC415" transform="translate(201,304)"/>
<path d="M0 0 C0.33 0.99 0.66 1.98 1 3 C2.32 2.67 3.64 2.34 5 2 C4.45276317 5.37462715 3.9451 7.08235 2 10 C2 8.02 2 6.04 2 4 C1.01 4.33 0.02 4.66 -1 5 C-0.67 3.35 -0.34 1.7 0 0 Z " fill="#403A03" transform="translate(238,262)"/>
<path d="M0 0 C0.66 0 1.32 0 2 0 C3.99785435 4.1205746 4.17835515 7.45194365 4 12 C2.09681116 9.14521674 1.5380901 7.58058692 0.875 4.3125 C0.70742187 3.50425781 0.53984375 2.69601563 0.3671875 1.86328125 C0.24601562 1.24839844 0.12484375 0.63351563 0 0 Z " fill="#E0D723" transform="translate(109,241)"/>
<path d="M0 0 C0.99 0.495 0.99 0.495 2 1 C2 2.65 2 4.3 2 6 C2.66 6 3.32 6 4 6 C3.67 7.65 3.34 9.3 3 11 C0.60236815 8.60236815 0.65719414 7.66726502 0.375 4.375 C0.30023438 3.55773437 0.22546875 2.74046875 0.1484375 1.8984375 C0.09945312 1.27195312 0.05046875 0.64546875 0 0 Z " fill="#E4D617" transform="translate(147,319)"/>
<path d="M0 0 C2.74277578 3.19990508 4.6302836 6.00499382 6 10 C5.34 10 4.68 10 4 10 C3.67 9.01 3.34 8.02 3 7 C1.70644173 5.62804426 0.37701298 4.28817344 -1 3 C-0.67 2.01 -0.34 1.02 0 0 Z " fill="#2E2700" transform="translate(128,288)"/>
<path d="M0 0 C1.485 0.99 1.485 0.99 3 2 C3.29296875 4.3828125 3.29296875 4.3828125 3.1875 7.125 C3.16042969 8.03507812 3.13335937 8.94515625 3.10546875 9.8828125 C3.07066406 10.58148438 3.03585938 11.28015625 3 12 C2.67 12 2.34 12 2 12 C0.86235649 7.73383684 0 4.43513689 0 0 Z " fill="#DDD31E" transform="translate(194,282)"/>
<path d="M0 0 C1.47177418 3.82661288 0.57016757 6.31010622 -1 10 C-1.96715918 11.03179606 -2.96225307 12.0392288 -4 13 C-3.52140759 11.39566191 -3.04210442 9.79153584 -2.5625 8.1875 C-2.29566406 7.29417969 -2.02882812 6.40085938 -1.75390625 5.48046875 C-1.19612127 3.64526945 -0.60655425 1.81966274 0 0 Z " fill="#B6AC1E" transform="translate(251,241)"/>
<path d="M0 0 C2.97 0 5.94 0 9 0 C8.67 0.99 8.34 1.98 8 3 C5.36 2.67 2.72 2.34 0 2 C0 1.34 0 0.68 0 0 Z " fill="#CCC319" transform="translate(212,209)"/>
<path d="M0 0 C1.32 0 2.64 0 4 0 C4 0.66 4 1.32 4 2 C2.25 3.6875 2.25 3.6875 0 5 C-2.25 4.6875 -2.25 4.6875 -4 4 C-3.01 3.67 -2.02 3.34 -1 3 C-0.67 2.01 -0.34 1.02 0 0 Z " fill="#E8DC19" transform="translate(141,131)"/>
<path d="M0 0 C0.33 0.66 0.66 1.32 1 2 C0.34 2 -0.32 2 -1 2 C-1.66 3.65 -2.32 5.3 -3 7 C-6 7 -6 7 -8 6 C-5.36 4.02 -2.72 2.04 0 0 Z " fill="#6F6E70" transform="translate(146,115)"/>
<path d="M0 0 C1.125 1.75 1.125 1.75 2 4 C1.125 6.25 1.125 6.25 0 8 C-0.66 7.34 -1.32 6.68 -2 6 C-1.44444444 1.44444444 -1.44444444 1.44444444 0 0 Z " fill="#656565" transform="translate(162,447)"/>
<path d="M0 0 C0.33 1.65 0.66 3.3 1 5 C-2.45925163 3.7508258 -5.14693203 2.32472205 -8 0 C-5.13822943 -1.43088528 -3.06624227 -0.59991697 0 0 Z " fill="#2A2800" transform="translate(265,114)"/>
<path d="M0 0 C0.99 0 1.98 0 3 0 C3.33 0.99 3.66 1.98 4 3 C3.01 3 2.02 3 1 3 C1 5.64 1 8.28 1 11 C0.67 11 0.34 11 0 11 C0 7.37 0 3.74 0 0 Z " fill="#EDE33C" transform="translate(220,333)"/>
<path d="M0 0 C0.66 0.33 1.32 0.66 2 1 C2 1.66 2 2.32 2 3 C3.65 3.33 5.3 3.66 7 4 C7 4.33 7 4.66 7 5 C3.37471432 5.20140476 1.13498292 4.85776765 -2 3 C-2 2.34 -2 1.68 -2 1 C-1.34 0.67 -0.68 0.34 0 0 Z " fill="#1D1700" transform="translate(216,300)"/>
<path d="M0 0 C2.79872437 2.52788007 4.45773019 4.20411134 5 8 C4.34 8 3.68 8 3 8 C2.67 7.34 2.34 6.68 2 6 C1.01 5.34 0.02 4.68 -1 4 C-0.67 2.68 -0.34 1.36 0 0 Z " fill="#E4D91A" transform="translate(299,152)"/>
<path d="M0 0 C0.99 1.32 1.98 2.64 3 4 C1.68 5.32 0.36 6.64 -1 8 C-2.2077558 4.37673261 -1.54311128 3.35853631 0 0 Z " fill="#030408" transform="translate(136,308)"/>
<path d="M0 0 C1.2077558 3.62326739 0.54311128 4.64146369 -1 8 C-1.66 8 -2.32 8 -3 8 C-3.36923077 3.44615385 -3.36923077 3.44615385 -1.5 1.1875 C-1.005 0.795625 -0.51 0.40375 0 0 Z " fill="#403504" transform="translate(200,253)"/>
<path d="M0 0 C1.32 0.33 2.64 0.66 4 1 C3.67 2.65 3.34 4.3 3 6 C2.01 6 1.02 6 0 6 C0 4.02 0 2.04 0 0 Z " fill="#F8EA1E" transform="translate(167,215)"/>
</svg>
