<?xml version="1.0" encoding="UTF-8"?>
<svg version="1.1" xmlns="http://www.w3.org/2000/svg" width="424" height="588">
<path d="M0 0 C0.87720703 -0.01224609 1.75441406 -0.02449219 2.65820312 -0.03710938 C8.86311267 -0.05082693 14.52777752 0.79506639 20.5625 2.1875 C21.85414063 2.44789062 23.14578125 2.70828125 24.4765625 2.9765625 C40.04283277 6.4830697 52.83954959 13.70530111 65.5625 23.1875 C66.39523437 23.80753906 67.22796875 24.42757812 68.0859375 25.06640625 C70.2769232 26.73768715 72.42732121 28.44564362 74.5625 30.1875 C75.33078125 30.80882813 76.0990625 31.43015625 76.890625 32.0703125 C77.62796875 32.68648437 78.3653125 33.30265625 79.125 33.9375 C79.78628906 34.48921875 80.44757813 35.0409375 81.12890625 35.609375 C82.5625 37.1875 82.5625 37.1875 82.5625 40.1875 C83.5525 40.5175 84.5425 40.8475 85.5625 41.1875 C87.04882812 42.87402344 87.04882812 42.87402344 88.59375 45.046875 C89.43873047 46.22636719 89.43873047 46.22636719 90.30078125 47.4296875 C91.17283203 48.67105469 91.17283203 48.67105469 92.0625 49.9375 C92.64386719 50.74960938 93.22523438 51.56171875 93.82421875 52.3984375 C98.83231765 59.43498836 102.49374948 66.12337738 105.5625 74.1875 C106.07683594 75.49267578 106.07683594 75.49267578 106.6015625 76.82421875 C118.6678016 108.37144693 114.49933693 141.96675366 101.25 172.4375 C95.20662683 185.79337188 88.08191286 198.52759842 80.33496094 210.95800781 C76.90201065 216.50963542 73.96753363 222.10839371 71.5625 228.1875 C71.26988281 228.91195312 70.97726562 229.63640625 70.67578125 230.3828125 C66.93524588 239.98047887 64.9183925 249.72740727 64.203125 259.98828125 C63.20018756 273.867514 60.72725039 283.91413335 50.296875 293.859375 C48.5625 295.1875 48.5625 295.1875 46.5625 295.1875 C46.69527344 295.75597656 46.82804688 296.32445312 46.96484375 296.91015625 C49.32501732 307.22945527 49.32501732 307.22945527 49.5625 311.1875 C48.1875 312.9375 48.1875 312.9375 46.5625 314.1875 C46.2325 315.1775 45.9025 316.1675 45.5625 317.1875 C46.2225 317.1875 46.8825 317.1875 47.5625 317.1875 C49.08004003 319.59771064 49.58566906 320.87085622 49.375 323.75 C48.51277053 326.33668841 47.64054617 327.47085317 45.5625 329.1875 C46.26375 330.074375 46.965 330.96125 47.6875 331.875 C49.5625 335.1875 49.5625 335.1875 48.9375 337.8125 C48.48375 338.59625 48.03 339.38 47.5625 340.1875 C45.98968148 343.04713388 45.98968148 343.04713388 45.5625 346.1875 C46.5525 346.5175 47.5425 346.8475 48.5625 347.1875 C49.5625 350.1875 49.5625 350.1875 48.5625 353.1875 C47.9025 353.1875 47.2425 353.1875 46.5625 353.1875 C45.79293864 355.53283951 45.79293864 355.53283951 45.5625 358.1875 C46.89628575 360.0229799 46.89628575 360.0229799 48.5625 361.1875 C47.43798273 364.1594385 46.33956209 366.52190687 44.5625 369.1875 C43.9025 369.1875 43.2425 369.1875 42.5625 369.1875 C42.27375 369.785625 41.985 370.38375 41.6875 371 C39.5322382 375.19078684 37.54392286 376.83948139 33.5625 379.1875 C33.2325 379.8475 32.9025 380.5075 32.5625 381.1875 C31.758125 381.661875 30.95375 382.13625 30.125 382.625 C27.3269028 384.08414045 27.3269028 384.08414045 25.5625 387.1875 C24.9025 387.1875 24.2425 387.1875 23.5625 387.1875 C23.294375 387.826875 23.02625 388.46625 22.75 389.125 C21.5625 391.1875 21.5625 391.1875 18.5625 392.1875 C18.5625 392.8475 18.5625 393.5075 18.5625 394.1875 C8.54397434 398.23006298 -0.69942074 398.41901916 -11.4375 398.1875 C-12.50742188 398.17074219 -13.57734375 398.15398437 -14.6796875 398.13671875 C-19.3008598 397.91755746 -21.7014223 397.75489323 -25.4375 394.875 C-26.0975 393.988125 -26.7575 393.10125 -27.4375 392.1875 C-28.035625 391.465625 -28.63375 390.74375 -29.25 390 C-30.4375 388.1875 -30.4375 388.1875 -30.4375 386.1875 C-31.7575 385.8575 -33.0775 385.5275 -34.4375 385.1875 C-34.4375 384.5275 -34.4375 383.8675 -34.4375 383.1875 C-35.4584375 382.878125 -35.4584375 382.878125 -36.5 382.5625 C-40.35389375 380.75854973 -43.51537764 378.2864655 -46.4375 375.1875 C-46.4375 374.5275 -46.4375 373.8675 -46.4375 373.1875 C-47.4275 372.8575 -48.4175 372.5275 -49.4375 372.1875 C-50.53515625 369.5 -50.53515625 369.5 -51.5 366.1875 C-52.09212485 364.17094629 -52.72734773 362.16557595 -53.4375 360.1875 C-54.0975 359.8575 -54.7575 359.5275 -55.4375 359.1875 C-55.4375 357.2075 -55.4375 355.2275 -55.4375 353.1875 C-54.7775 352.8575 -54.1175 352.5275 -53.4375 352.1875 C-53.27068891 349.27097826 -53.27068891 349.27097826 -53.4375 346.1875 C-54.0975 345.5275 -54.7575 344.8675 -55.4375 344.1875 C-55.0625 340.5625 -55.0625 340.5625 -54.4375 337.1875 C-53.7775 337.1875 -53.1175 337.1875 -52.4375 337.1875 C-52.9325 336.135625 -53.4275 335.08375 -53.9375 334 C-55.26529788 330.93297391 -55.74465006 328.56615064 -55.4375 325.1875 C-54.4475 324.8575 -53.4575 324.5275 -52.4375 324.1875 C-53.73905006 320.10785719 -53.73905006 320.10785719 -55.4375 316.1875 C-55.49762007 314.79684201 -55.49801513 313.40328037 -55.46484375 312.01171875 C-55.45259766 311.18349609 -55.44035156 310.35527344 -55.42773438 309.50195312 C-55.3928116 307.76228176 -55.35380458 306.02268719 -55.31054688 304.28320312 C-55.22190641 297.55174213 -56.3671817 293.4568572 -60.3125 287.9375 C-66.91716851 278.20769565 -69.30975022 268.95772983 -69.875 257.3125 C-70.68238932 242.00743719 -76.87322149 229.93385904 -84.58984375 216.95703125 C-85.4375 215.1875 -85.4375 215.1875 -85.4375 212.1875 C-86.0975 212.1875 -86.7575 212.1875 -87.4375 212.1875 C-89.49393741 208.26157404 -91.12688409 204.42179756 -92.4375 200.1875 C-93.0975 200.1875 -93.7575 200.1875 -94.4375 200.1875 C-95.11158308 198.92058493 -95.77650497 197.64879251 -96.4375 196.375 C-96.80875 195.66730469 -97.18 194.95960938 -97.5625 194.23046875 C-98.4375 192.1875 -98.4375 192.1875 -98.4375 189.1875 C-99.0975 189.1875 -99.7575 189.1875 -100.4375 189.1875 C-101.32810012 187.19255572 -102.21717722 185.19692592 -103.1015625 183.19921875 C-104.09046851 180.96984291 -105.0862002 178.74403264 -106.0859375 176.51953125 C-111.80387448 163.72329705 -116.72024688 150.99408341 -119.4375 137.1875 C-119.62441406 136.28773438 -119.81132813 135.38796875 -120.00390625 134.4609375 C-122.51718361 115.48682551 -120.1907209 95.98466226 -113.4375 78.1875 C-113.20514648 77.55424805 -112.97279297 76.92099609 -112.73339844 76.26855469 C-108.09611777 63.64520058 -102.00745418 52.59233102 -93.4375 42.1875 C-92.4475 40.9190625 -92.4475 40.9190625 -91.4375 39.625 C-90.7775 38.820625 -90.1175 38.01625 -89.4375 37.1875 C-88.87933594 36.50171875 -88.32117188 35.8159375 -87.74609375 35.109375 C-87.12863281 34.37203125 -86.51117188 33.6346875 -85.875 32.875 C-85.29621094 32.17761719 -84.71742188 31.48023437 -84.12109375 30.76171875 C-82.4375 29.1875 -82.4375 29.1875 -79.4375 29.1875 C-78.9425 27.7025 -78.9425 27.7025 -78.4375 26.1875 C-76.23940912 24.48613602 -74.07367978 22.94845147 -71.75 21.4375 C-71.08025146 20.99720459 -70.41050293 20.55690918 -69.72045898 20.10327148 C-48.66438136 6.52149586 -25.0051713 0.01829201 0 0 Z M-34.4375 16.1875 C-35.52675781 16.56003906 -36.61601562 16.93257812 -37.73828125 17.31640625 C-44.93900688 19.78367959 -51.74211981 22.56212133 -58.4375 26.1875 C-58.4375 26.8475 -58.4375 27.5075 -58.4375 28.1875 C-59.1490625 28.42984375 -59.860625 28.6721875 -60.59375 28.921875 C-68.20410218 32.30889987 -74.33625903 38.73593053 -79.4375 45.1875 C-80.22769531 45.78691406 -81.01789063 46.38632813 -81.83203125 47.00390625 C-84.66511823 49.3782625 -86.31100599 51.67800423 -88.25 54.8125 C-88.85457031 55.77414063 -89.45914063 56.73578125 -90.08203125 57.7265625 C-91.59831746 60.01121758 -91.59831746 60.01121758 -91.4375 62.1875 C-92.0975 62.1875 -92.7575 62.1875 -93.4375 62.1875 C-108.55841579 96.42193294 -114.19812905 125.34082048 -100.4375 161.1875 C-95.00615621 174.88101163 -88.61898368 188.50399868 -80.76171875 200.9765625 C-79.16331466 203.64528437 -77.81231083 206.39694104 -76.4375 209.1875 C-75.81726751 210.38653819 -75.19476163 211.58440239 -74.5703125 212.78125 C-67.06046287 227.29199582 -62.83535527 240.69688828 -60.3996582 256.88769531 C-59.16218571 264.66795716 -57.53102429 272.35016939 -53.4375 279.1875 C-50.45095001 281.32165619 -47.87932374 281.43455279 -44.26953125 281.41796875 C-42.80676758 281.41506836 -42.80676758 281.41506836 -41.31445312 281.41210938 C-40.30318359 281.39986328 -39.29191406 281.38761719 -38.25 281.375 C-36.71569336 281.3740332 -36.71569336 281.3740332 -35.15039062 281.37304688 C-30.45014695 281.78531399 -30.45014695 281.78531399 -26.4375 280.1875 C-26.30983292 278.73983093 -26.24920829 277.28616704 -26.21630859 275.83325195 C-26.18154922 274.43832268 -26.18154922 274.43832268 -26.14608765 273.01521301 C-26.1262381 271.99570053 -26.10638855 270.97618805 -26.0859375 269.92578125 C-26.05120834 268.34146553 -26.05120834 268.34146553 -26.01577759 266.72514343 C-25.96797266 264.46956467 -25.92275973 262.21392977 -25.87988281 259.95825195 C-25.81419797 256.58714381 -25.73583809 253.21650766 -25.65625 249.84570312 C-25.41050644 238.19180408 -25.38308808 226.65055915 -26.32626343 215.02278137 C-26.75179779 208.70614032 -26.75179779 208.70614032 -24.94897461 205.73120117 C-24.45018799 205.22177979 -23.95140137 204.7123584 -23.4375 204.1875 C-24.00522465 195.59884502 -28.98370154 186.92256947 -32.4375 179.1875 C-34.32741514 174.89739264 -35.97646652 170.63908637 -37.4375 166.1875 C-38.40168201 163.58971819 -39.41541106 161.01296173 -40.4375 158.4375 C-40.82808594 157.43009766 -40.82808594 157.43009766 -41.2265625 156.40234375 C-42.3673728 153.52727132 -43.2267479 151.3982521 -45.4375 149.1875 C-46.02875554 147.4956896 -46.56087772 145.78301755 -47.0625 144.0625 C-49.02312122 137.88130487 -51.74181684 132.31732671 -54.79541016 126.62060547 C-56.63273567 123.12577778 -57.4375 121.22272713 -57.4375 117.1875 C-50.62882711 114.4152648 -44.61509662 113.74383327 -37.3046875 113.7890625 C-36.26861359 113.78619232 -35.23253967 113.78332214 -34.16506958 113.78036499 C-31.98845875 113.77833489 -29.81182923 113.78379042 -27.63525391 113.79638672 C-24.3150137 113.81248781 -20.99598461 113.79648461 -17.67578125 113.77734375 C-15.55208067 113.77932573 -13.42838083 113.78316846 -11.3046875 113.7890625 C-10.31910858 113.78298981 -9.33352966 113.77691711 -8.31808472 113.7706604 C-2.52188056 113.82950798 1.36768919 114.64315403 6.5625 117.1875 C9.85535101 117.44019417 9.85535101 117.44019417 12.5625 117.1875 C12.5625 116.5275 12.5625 115.8675 12.5625 115.1875 C13.2225 115.1875 13.8825 115.1875 14.5625 115.1875 C15.2225 113.2075 15.8825 111.2275 16.5625 109.1875 C17.8825 109.1875 19.2025 109.1875 20.5625 109.1875 C21.2225 111.1675 21.8825 113.1475 22.5625 115.1875 C23.79226562 115.24808594 25.02203125 115.30867188 26.2890625 115.37109375 C27.92188427 115.45555005 29.55469627 115.54019547 31.1875 115.625 C31.99574219 115.66431641 32.80398437 115.70363281 33.63671875 115.74414062 C38.01400865 115.97546082 42.24797281 116.35670917 46.5625 117.1875 C46.88048821 121.53333886 46.15527711 124.35979255 44.3894043 128.30688477 C43.08255709 131.27902649 41.99537773 134.32847145 40.875 137.375 C38.17414239 144.67106069 35.30589257 151.89335499 32.36645508 159.09643555 C30.51001357 163.67994813 28.81593522 168.2778695 27.28393555 172.97973633 C26.09778951 176.60962419 24.82927061 180.21012109 23.5625 183.8125 C23.315 184.5240625 23.0675 185.235625 22.8125 185.96875 C21.61299248 189.37984952 20.35316475 192.70826136 18.86328125 196.00390625 C17.37258831 199.65229888 17.43298354 201.45140708 18.5625 205.1875 C19.2225 205.8475 19.8825 206.5075 20.5625 207.1875 C20.5390625 209.953125 20.5390625 209.953125 20.1875 213.4375 C18.91748329 225.42239994 18.91748329 225.42239994 20.05322266 237.31933594 C20.75301341 241.2604394 20.77767772 245.14089004 20.84375 249.13671875 C20.86215942 249.99054642 20.88056885 250.84437408 20.89953613 251.72407532 C20.97799339 255.36548728 21.0461514 259.0070725 21.11474609 262.64868164 C21.16639524 265.3114557 21.22364681 267.97406792 21.28125 270.63671875 C21.30161316 271.87732307 21.30161316 271.87732307 21.3223877 273.14299011 C21.3098346 277.29886735 21.3098346 277.29886735 22.5625 281.1875 C26.47891711 281.30368764 30.39489101 281.37474654 34.3125 281.4375 C35.97925781 281.48777344 35.97925781 281.48777344 37.6796875 281.5390625 C39.28457031 281.55839844 39.28457031 281.55839844 40.921875 281.578125 C42.39865723 281.6095459 42.39865723 281.6095459 43.90527344 281.64160156 C47.31688955 281.05858007 48.43574678 279.86177007 50.5625 277.1875 C53.56315438 269.55838526 54.7560625 261.55415148 55.5 253.4375 C56.99930902 237.31252731 61.2724013 220.2179489 70.64453125 206.80859375 C71.80887401 205.06290694 71.80887401 205.06290694 71.5625 202.1875 C72.2225 202.1875 72.8825 202.1875 73.5625 202.1875 C82.95944794 184.90463124 92.12407291 167.18058549 97.5625 148.1875 C97.84738281 147.1975 98.13226563 146.2075 98.42578125 145.1875 C106.42290878 115.47305458 99.59280297 89.01912978 86.5625 62.1875 C85.9025 62.1875 85.2425 62.1875 84.5625 62.1875 C84.32015625 61.47335938 84.0778125 60.75921875 83.828125 60.0234375 C82.38592878 56.79184968 80.59050685 54.51666459 78.3125 51.8125 C77.50941406 50.85601562 76.70632813 49.89953125 75.87890625 48.9140625 C75.11449219 48.01429688 74.35007812 47.11453125 73.5625 46.1875 C72.97339844 45.47335938 72.38429688 44.75921875 71.77734375 44.0234375 C69.28120926 41.02296893 66.9384336 38.23717397 63.5625 36.1875 C62.9025 36.1875 62.2425 36.1875 61.5625 36.1875 C61.5625 35.5275 61.5625 34.8675 61.5625 34.1875 C60.923125 33.89875 60.28375 33.61 59.625 33.3125 C57.5625 32.1875 57.5625 32.1875 56.5625 30.1875 C54.92136667 29.14612631 53.24821088 28.15505186 51.5625 27.1875 C49.96535156 26.17623047 49.96535156 26.17623047 48.3359375 25.14453125 C47.7790625 24.79326172 47.2221875 24.44199219 46.6484375 24.08007812 C45.49692622 23.35315377 44.34852652 22.62127944 43.203125 21.88476562 C39.66668831 19.66422707 39.66668831 19.66422707 35.5625 19.1875 C35.5625 18.5275 35.5625 17.8675 35.5625 17.1875 C34.80324219 16.98253906 34.04398438 16.77757812 33.26171875 16.56640625 C32.26785156 16.29699219 31.27398437 16.02757813 30.25 15.75 C29.26386719 15.48316406 28.27773437 15.21632813 27.26171875 14.94140625 C25.34732474 14.40670575 23.44816385 13.81605462 21.5625 13.1875 C3.28563075 9.93985916 -16.89409939 9.34057815 -34.4375 16.1875 Z M-48.4375 121.1875 C-47.46413854 125.39165488 -45.84300998 129.27660175 -44.1875 133.25 C-43.87176025 134.01296387 -43.55602051 134.77592773 -43.23071289 135.56201172 C-41.15290791 140.5535991 -38.95740217 145.47735041 -36.68359375 150.3828125 C-34.66106757 154.93508146 -32.8695781 159.57784489 -31.0625 164.21875 C-29.82439959 167.33280914 -28.43714853 170.35826071 -27.01953125 173.39453125 C-24.32841007 179.26414201 -22.19136438 185.26216874 -20.125 191.375 C-19.76599609 192.42236328 -19.40699219 193.46972656 -19.03710938 194.54882812 C-18.16567187 197.09342565 -17.29921932 199.63959864 -16.4375 202.1875 C-15.4475 202.1875 -14.4575 202.1875 -13.4375 202.1875 C-11.98637224 199.28524449 -12.30764841 196.73838766 -12.3046875 193.5 C-12.30373077 192.84169189 -12.30277405 192.18338379 -12.30178833 191.50512695 C-12.30110775 190.11311752 -12.30295354 188.7211049 -12.30712891 187.32910156 C-12.31247896 185.19589117 -12.30717988 183.06289133 -12.30078125 180.9296875 C-12.30144205 179.57812453 -12.30272326 178.2265617 -12.3046875 176.875 C-12.30637939 175.02455078 -12.30637939 175.02455078 -12.30810547 173.13671875 C-12.23380197 170.25524669 -12.23380197 170.25524669 -13.4375 168.1875 C-14.2625 167.89875 -15.0875 167.61 -15.9375 167.3125 C-18.4375 166.1875 -18.4375 166.1875 -19.3125 164.3125 C-19.4505784 161.96516723 -19.33880793 160.36566083 -18.4375 158.1875 C-16.9525 157.6925 -16.9525 157.6925 -15.4375 157.1875 C-15.1075 156.1975 -14.7775 155.2075 -14.4375 154.1875 C-11.4375 155.1875 -11.4375 155.1875 -10.4375 157.1875 C-9.12394531 157.16429687 -7.81039062 157.14109375 -6.45703125 157.1171875 C-4.72135987 157.09842349 -2.98568232 157.08022396 -1.25 157.0625 C-0.38568359 157.04574219 0.47863281 157.02898437 1.36914062 157.01171875 C5.88458103 156.97711767 9.46331483 157.03182084 13.5625 159.1875 C13.5625 161.4975 13.5625 163.8075 13.5625 166.1875 C11.2525 166.8475 8.9425 167.5075 6.5625 168.1875 C6.5625 179.0775 6.5625 189.9675 6.5625 201.1875 C7.5525 201.6825 7.5525 201.6825 8.5625 202.1875 C9.2225 201.8575 9.8825 201.5275 10.5625 201.1875 C11.22137547 199.16894515 11.78776665 197.1200071 12.3125 195.0625 C14.47215473 187.15447059 17.43783633 179.75504482 20.5625 172.1875 C23.91613237 163.78245887 26.94105216 155.28277146 29.890625 146.72998047 C32.20454621 140.07365119 34.77041711 133.55609446 37.49609375 127.05859375 C38.73659326 124.22924472 38.73659326 124.22924472 38.5625 121.1875 C35.95805652 121.13355295 33.35473002 121.09385531 30.75 121.0625 C30.01201172 121.04574219 29.27402344 121.02898437 28.51367188 121.01171875 C24.65003574 120.97675372 22.85346332 120.99352445 19.5625 123.1875 C18.32397688 126.0541949 18.32397688 126.0541949 17.375 129.3125 C16.85873047 130.95605469 16.85873047 130.95605469 16.33203125 132.6328125 C16.07808594 133.47585937 15.82414062 134.31890625 15.5625 135.1875 C14.5725 135.1875 13.5825 135.1875 12.5625 135.1875 C13.2225 131.5575 13.8825 127.9275 14.5625 124.1875 C-1.66808664 119.46492783 -1.66808664 119.46492783 -18.4375 119.1875 C-19.67017348 120.19586062 -19.67017348 120.19586062 -19.53515625 122.25390625 C-19.52355469 123.07761719 -19.51195312 123.90132813 -19.5 124.75 C-19.49097656 125.57628906 -19.48195313 126.40257812 -19.47265625 127.25390625 C-19.46105469 127.89199219 -19.44945312 128.53007812 -19.4375 129.1875 C-20.7575 129.1875 -22.0775 129.1875 -23.4375 129.1875 C-23.685 128.28 -23.9325 127.3725 -24.1875 126.4375 C-25.54369607 122.91139021 -26.47039379 121.48048755 -29.4375 119.1875 C-32.76764313 118.62863143 -32.76764313 118.62863143 -36.375 118.8125 C-38.18291016 118.83183594 -38.18291016 118.83183594 -40.02734375 118.8515625 C-43.24087614 119.16813041 -45.53944051 119.81270897 -48.4375 121.1875 Z M-5.4375 170.1875 C-5.32340318 172.29228604 -5.19584639 174.39634577 -5.0625 176.5 C-4.99289063 177.67175781 -4.92328125 178.84351563 -4.8515625 180.05078125 C-4.65136253 183.34449887 -4.65136253 183.34449887 -2.4375 186.1875 C-2.1075 181.2375 -1.7775 176.2875 -1.4375 171.1875 C-2.7575 170.8575 -4.0775 170.5275 -5.4375 170.1875 Z M-15.75 213.875 C-16.78470816 217.355382 -16.55828138 220.56405866 -16.4375 224.1875 C-15.4475 224.1875 -14.4575 224.1875 -13.4375 224.1875 C-12.03714954 222.48599615 -12.03714954 222.48599615 -10.875 220.3125 C-9.49627768 217.91584251 -8.40522446 216.15522446 -6.4375 214.1875 C-2.743993 213.98603598 0.04190432 214.01396811 3.5625 215.1875 C4.5625 216.875 4.5625 216.875 5.5625 219.1875 C6.09875 220.26 6.635 221.3325 7.1875 222.4375 C7.64125 223.345 8.095 224.2525 8.5625 225.1875 C9.5525 225.1875 10.5425 225.1875 11.5625 225.1875 C11.42081863 223.74958484 11.27398957 222.3121763 11.125 220.875 C11.04378906 220.07449219 10.96257812 219.27398437 10.87890625 218.44921875 C10.60984307 216.02662821 10.60984307 216.02662821 9.5625 213.1875 C1.83412547 208.60261114 -9.43661638 205.75779249 -15.75 213.875 Z M5.5625 239.1875 C5.53785362 245.00821622 5.5196657 250.82890234 5.50756836 256.6496582 C5.50252733 258.63143441 5.49569462 260.61320689 5.48706055 262.5949707 C5.47498485 265.43702109 5.46926955 268.27902247 5.46484375 271.12109375 C5.45968246 272.01275742 5.45452118 272.90442108 5.44920349 273.82310486 C5.44900823 275.94490601 5.5003997 278.0666078 5.5625 280.1875 C6.6220877 281.47072547 6.6220877 281.47072547 9.0625 281.3125 C11.5029123 281.47072547 11.5029123 281.47072547 12.5625 280.1875 C13.15300699 271.03464161 12.65186468 262.00383271 11.3125 252.9375 C11.20325195 252.14037598 11.09400391 251.34325195 10.98144531 250.52197266 C10.85866211 249.76706543 10.73587891 249.0121582 10.609375 248.234375 C10.50463867 247.57276367 10.39990234 246.91115234 10.29199219 246.22949219 C9.27907039 243.39412474 7.51122195 241.45100792 5.5625 239.1875 Z M-13.4375 242.1875 C-12.4375 244.1875 -12.4375 244.1875 -12.4375 244.1875 Z M-3.4375 243.1875 C-5.75710493 250.14631478 -4.27454844 258.02774635 -3.4375 265.1875 C-2.7775 264.8575 -2.1175 264.5275 -1.4375 264.1875 C-0.44239952 259.92998148 -0.30245565 255.79674762 -0.3125 251.4375 C-0.30863281 249.74367188 -0.30863281 249.74367188 -0.3046875 248.015625 C-0.24395388 245.23728888 -0.24395388 245.23728888 -1.4375 243.1875 C-2.0975 243.1875 -2.7575 243.1875 -3.4375 243.1875 Z M-14.4375 245.1875 C-17.21320485 256.71163175 -16.63194183 268.41928213 -16.4375 280.1875 C-15.4475 280.5175 -14.4575 280.8475 -13.4375 281.1875 C-11.49428879 279.24428879 -12.30489606 276.33100112 -12.29882812 273.74707031 C-12.30333984 272.86116211 -12.30785156 271.97525391 -12.3125 271.0625 C-12.31540039 269.71816895 -12.31540039 269.71816895 -12.31835938 268.34667969 C-12.36799586 260.59511545 -12.78220477 252.91062239 -13.4375 245.1875 C-13.7675 245.1875 -14.0975 245.1875 -14.4375 245.1875 Z M-1.4375 264.1875 C-3.80203193 266.55203193 -3.80402704 267.44619929 -4.125 270.6875 C-4.21136719 271.4815625 -4.29773438 272.275625 -4.38671875 273.09375 C-4.60264098 275.24785882 -4.60264098 275.24785882 -3.4375 277.1875 C-2.4475 277.1875 -1.4575 277.1875 -0.4375 277.1875 C-0.4375 272.8975 -0.4375 268.6075 -0.4375 264.1875 C-0.7675 264.1875 -1.0975 264.1875 -1.4375 264.1875 Z M-46.4375 320.1875 C-46.4375 320.5175 -46.4375 320.8475 -46.4375 321.1875 C-44.1275 321.1875 -41.8175 321.1875 -39.4375 321.1875 C-39.4375 320.8575 -39.4375 320.5275 -39.4375 320.1875 C-41.7475 320.1875 -44.0575 320.1875 -46.4375 320.1875 Z M-46.4375 334.1875 C-45.4475 335.6725 -45.4475 335.6725 -44.4375 337.1875 C-43.1175 336.8575 -41.7975 336.5275 -40.4375 336.1875 C-40.7675 335.5275 -41.0975 334.8675 -41.4375 334.1875 C-43.0875 334.1875 -44.7375 334.1875 -46.4375 334.1875 Z M-34.4375 335.1875 C-34.4375 335.5175 -34.4375 335.8475 -34.4375 336.1875 C-32.7875 336.1875 -31.1375 336.1875 -29.4375 336.1875 C-29.4375 335.8575 -29.4375 335.5275 -29.4375 335.1875 C-31.0875 335.1875 -32.7375 335.1875 -34.4375 335.1875 Z M-46.4375 350.1875 C-46.4375 350.5175 -46.4375 350.8475 -46.4375 351.1875 C-42.1475 351.1875 -37.8575 351.1875 -33.4375 351.1875 C-33.4375 350.8575 -33.4375 350.5275 -33.4375 350.1875 C-37.7275 350.1875 -42.0175 350.1875 -46.4375 350.1875 Z " fill="#0E0E0E" transform="translate(215.4375,94.8125)"/>
<path d="M0 0 C3.465 1.485 3.465 1.485 7 3 C6.67 4.32 6.34 5.64 6 7 C4.68 7.33 3.36 7.66 2 8 C2.97336146 12.20415488 4.59449002 16.08910175 6.25 20.0625 C6.56573975 20.82546387 6.88147949 21.58842773 7.20678711 22.37451172 C9.28459209 27.3660991 11.48009783 32.28985041 13.75390625 37.1953125 C15.54341133 41.22310136 17.14661477 45.32234869 18.75439453 49.42504883 C20.70350146 54.36384452 22.88387537 59.15691934 25.21484375 63.92578125 C25.47394531 64.61027344 25.73304688 65.29476562 26 66 C25.67 66.66 25.34 67.32 25 68 C22.6859378 68.73075648 20.35171131 69.40138258 18 70 C17.75765625 69.38253906 17.5153125 68.76507813 17.265625 68.12890625 C15.60915093 63.9431237 13.92835126 59.78475705 12.0625 55.6875 C9.84296711 50.79224564 8.00074264 45.76635338 6.1484375 40.72265625 C5.16503454 37.91389923 5.16503454 37.91389923 3 36 C2.40874446 34.3081896 1.87662228 32.59551755 1.375 30.875 C-0.58414058 24.67480796 -3.32978957 19.11603329 -6.44580078 13.43310547 C-9.0540298 8.5183957 -9.0540298 8.5183957 -8.78198242 5.90820312 C-8 4 -8 4 -5 2 C-2.3125 1.875 -2.3125 1.875 0 2 C0 1.34 0 0.68 0 0 Z " fill="#1F1F1F" transform="translate(166,208)"/>
<path d="M0 0 C1.65 0.33 3.3 0.66 5 1 C5 1.99 5 2.98 5 4 C4.195625 4.28875 3.39125 4.5775 2.5625 4.875 C-0.1326468 5.73262568 -0.1326468 5.73262568 -1 8 C-1.66 7.67 -2.32 7.34 -3 7 C-2.01 4.69 -1.02 2.38 0 0 Z " fill="#5B5B5B" transform="translate(232,203)"/>
<path d="M0 0 C0.66 0 1.32 0 2 0 C2 2.97 2 5.94 2 9 C-1 6 -1 6 -1.25 3.375 C-1 1 -1 1 0 0 Z " fill="#545456" transform="translate(161,419)"/>
<path d="" fill="#000000" transform="translate(0,0)"/>
<path d="" fill="#FFFFFF" transform="translate(0,0)"/>
<path d="" fill="#FFFFFF" transform="translate(0,0)"/>
<path d="" fill="#000000" transform="translate(0,0)"/>
</svg>
